<svg width="842" height="249" viewBox="0 0 842 249" fill="none" xmlns="http://www.w3.org/2000/svg">
<path d="M252.106 108.347V62.2674H256.876V69.1524C258.256 66.3924 260.086 64.3224 262.366 62.9424C264.646 61.5324 267.346 60.8274 270.466 60.8274C271.786 60.8274 273.091 60.9624 274.381 61.2324C275.701 61.4724 276.841 61.8024 277.801 62.2224L275.866 66.2724C274.996 65.8524 274.006 65.5374 272.896 65.3274C271.816 65.1174 270.751 65.0124 269.701 65.0124C267.541 65.0124 265.471 65.5824 263.491 66.7224C261.541 67.8324 259.951 69.2874 258.721 71.0874C257.491 72.8574 256.876 74.7474 256.876 76.7574V108.347H252.106ZM312.25 109.787C307.51 109.787 303.235 108.752 299.425 106.682C295.645 104.612 292.645 101.747 290.425 98.0874C288.235 94.3974 287.14 90.1374 287.14 85.3074C287.14 80.4774 288.235 76.2324 290.425 72.5724C292.645 68.8824 295.645 66.0024 299.425 63.9324C303.235 61.8624 307.51 60.8274 312.25 60.8274C316.99 60.8274 321.25 61.8624 325.03 63.9324C328.84 66.0024 331.855 68.8824 334.075 72.5724C336.295 76.2324 337.405 80.4774 337.405 85.3074C337.405 90.1374 336.295 94.3974 334.075 98.0874C331.855 101.747 328.84 104.612 325.03 106.682C321.25 108.752 316.99 109.787 312.25 109.787ZM312.25 105.422C316.15 105.422 319.615 104.567 322.645 102.857C325.705 101.117 328.105 98.7324 329.845 95.7024C331.615 92.6724 332.5 89.2074 332.5 85.3074C332.5 81.4074 331.615 77.9424 329.845 74.9124C328.105 71.8824 325.705 69.5124 322.645 67.8024C319.615 66.0624 316.15 65.1924 312.25 65.1924C308.35 65.1924 304.87 66.0624 301.81 67.8024C298.78 69.5124 296.38 71.8824 294.61 74.9124C292.87 77.9424 292 81.4074 292 85.3074C292 89.2074 292.87 92.6724 294.61 95.7024C296.38 98.7324 298.78 101.117 301.81 102.857C304.87 104.567 308.35 105.422 312.25 105.422ZM375.882 109.787C371.142 109.787 366.867 108.752 363.057 106.682C359.277 104.612 356.277 101.747 354.057 98.0874C351.867 94.3974 350.772 90.1374 350.772 85.3074C350.772 80.4774 351.867 76.2324 354.057 72.5724C356.277 68.8824 359.277 66.0024 363.057 63.9324C366.867 61.8624 371.142 60.8274 375.882 60.8274C380.622 60.8274 384.882 61.8624 388.662 63.9324C392.472 66.0024 395.487 68.8824 397.707 72.5724C399.927 76.2324 401.037 80.4774 401.037 85.3074C401.037 90.1374 399.927 94.3974 397.707 98.0874C395.487 101.747 392.472 104.612 388.662 106.682C384.882 108.752 380.622 109.787 375.882 109.787ZM375.882 105.422C379.782 105.422 383.247 104.567 386.277 102.857C389.337 101.117 391.737 98.7324 393.477 95.7024C395.247 92.6724 396.132 89.2074 396.132 85.3074C396.132 81.4074 395.247 77.9424 393.477 74.9124C391.737 71.8824 389.337 69.5124 386.277 67.8024C383.247 66.0624 379.782 65.1924 375.882 65.1924C371.982 65.1924 368.502 66.0624 365.442 67.8024C362.412 69.5124 360.012 71.8824 358.242 74.9124C356.502 77.9424 355.632 81.4074 355.632 85.3074C355.632 89.2074 356.502 92.6724 358.242 95.7024C360.012 98.7324 362.412 101.117 365.442 102.857C368.502 104.567 371.982 105.422 375.882 105.422ZM417.78 108.347V30.9474H422.55V81.6174L441.315 62.2674H447.525L426.915 83.7324L448.65 108.347H442.53L422.55 85.5774V108.347H417.78ZM465.196 108.347V62.2674H469.966V108.347H465.196ZM467.581 53.1324C466.981 53.1324 466.426 52.9824 465.916 52.6824C465.406 52.3824 465.001 51.9774 464.701 51.4674C464.401 50.9574 464.251 50.4024 464.251 49.8024C464.251 49.1724 464.401 48.6174 464.701 48.1374C465.001 47.6274 465.406 47.2224 465.916 46.9224C466.426 46.6224 466.981 46.4724 467.581 46.4724C468.211 46.4724 468.766 46.6224 469.246 46.9224C469.756 47.2224 470.161 47.6274 470.461 48.1374C470.761 48.6174 470.911 49.1574 470.911 49.7574C470.911 50.3874 470.761 50.9574 470.461 51.4674C470.161 51.9774 469.756 52.3824 469.246 52.6824C468.766 52.9824 468.211 53.1324 467.581 53.1324ZM511.667 109.787C506.837 109.787 502.547 108.722 498.797 106.592C495.047 104.432 492.107 101.537 489.977 97.9074C487.847 94.2474 486.782 90.1374 486.782 85.5774C486.782 82.0974 487.397 78.8574 488.627 75.8574C489.887 72.8574 491.612 70.2324 493.802 67.9824C496.022 65.7324 498.572 63.9774 501.452 62.7174C504.362 61.4574 507.452 60.8274 510.722 60.8274C515.072 60.8274 519.002 61.8324 522.512 63.8424C526.052 65.8224 528.887 68.5674 531.017 72.0774C533.177 75.5874 534.362 79.5924 534.572 84.0924C534.572 84.3924 534.572 84.6624 534.572 84.9024C534.572 85.1124 534.557 85.3674 534.527 85.6674H491.462C491.462 89.5374 492.332 92.9874 494.072 96.0174C495.812 99.0474 498.212 101.432 501.272 103.172C504.362 104.882 507.872 105.737 511.802 105.737C515.552 105.737 518.927 104.942 521.927 103.352C524.957 101.762 527.402 99.5124 529.262 96.6024L532.862 98.6274C530.672 102.167 527.717 104.912 523.997 106.862C520.307 108.812 516.197 109.787 511.667 109.787ZM491.687 81.8874H529.802C529.412 78.6174 528.332 75.7074 526.562 73.1574C524.792 70.6074 522.542 68.5974 519.812 67.1274C517.082 65.6274 514.082 64.8774 510.812 64.8774C507.482 64.8774 504.437 65.6124 501.677 67.0824C498.947 68.5524 496.697 70.5774 494.927 73.1574C493.157 75.7074 492.077 78.6174 491.687 81.8874ZM573.61 108.347V62.2674H578.38V68.8374C579.52 66.6474 581.395 64.7724 584.005 63.2124C586.645 61.6224 589.945 60.8274 593.905 60.8274C597.475 60.8274 600.535 61.5624 603.085 63.0324C605.635 64.4724 607.585 66.6024 608.935 69.4224C610.285 72.2124 610.96 75.6324 610.96 79.6824V108.347H606.19V80.5374C606.19 75.4374 605.005 71.5524 602.635 68.8824C600.295 66.1824 596.98 64.8324 592.69 64.8324C589.69 64.8324 587.125 65.4324 584.995 66.6324C582.865 67.8324 581.23 69.4074 580.09 71.3574C578.95 73.3074 578.38 75.3924 578.38 77.6124V108.347H573.61ZM630.255 108.347V62.2674H635.025V108.347H630.255ZM632.64 53.1324C632.04 53.1324 631.485 52.9824 630.975 52.6824C630.465 52.3824 630.06 51.9774 629.76 51.4674C629.46 50.9574 629.31 50.4024 629.31 49.8024C629.31 49.1724 629.46 48.6174 629.76 48.1374C630.06 47.6274 630.465 47.2224 630.975 46.9224C631.485 46.6224 632.04 46.4724 632.64 46.4724C633.27 46.4724 633.825 46.6224 634.305 46.9224C634.815 47.2224 635.22 47.6274 635.52 48.1374C635.82 48.6174 635.97 49.1574 635.97 49.7574C635.97 50.3874 635.82 50.9574 635.52 51.4674C635.22 51.9774 634.815 52.3824 634.305 52.6824C633.825 52.9824 633.27 53.1324 632.64 53.1324ZM655.261 108.347V62.2674H660.031V68.8374C661.171 66.6474 663.046 64.7724 665.656 63.2124C668.296 61.6224 671.596 60.8274 675.556 60.8274C679.126 60.8274 682.186 61.5624 684.736 63.0324C687.286 64.4724 689.236 66.6024 690.586 69.4224C691.936 72.2124 692.611 75.6324 692.611 79.6824V108.347H687.841V80.5374C687.841 75.4374 686.656 71.5524 684.286 68.8824C681.946 66.1824 678.631 64.8324 674.341 64.8324C671.341 64.8324 668.776 65.4324 666.646 66.6324C664.516 67.8324 662.881 69.4074 661.741 71.3574C660.601 73.3074 660.031 75.3924 660.031 77.6124V108.347H655.261ZM705.155 133.097C703.655 133.097 702.245 132.902 700.925 132.512C699.575 132.152 698.45 131.612 697.55 130.892L698.945 127.112C700.325 128.312 702.14 128.912 704.39 128.912C709.46 128.912 711.995 125.582 711.995 118.922V62.2674H716.765V119.057C716.765 123.647 715.775 127.127 713.795 129.497C711.845 131.897 708.965 133.097 705.155 133.097ZM714.38 53.0424C713.78 53.0424 713.225 52.8924 712.715 52.5924C712.205 52.2924 711.785 51.8874 711.455 51.3774C711.155 50.8674 711.005 50.3124 711.005 49.7124C711.005 49.0824 711.155 48.5124 711.455 48.0024C711.785 47.4924 712.205 47.0874 712.715 46.7874C713.225 46.4874 713.78 46.3374 714.38 46.3374C714.98 46.3374 715.535 46.4874 716.045 46.7874C716.555 47.0874 716.96 47.5074 717.26 48.0474C717.59 48.5574 717.755 49.1124 717.755 49.7124C717.755 50.3124 717.59 50.8674 717.26 51.3774C716.96 51.8874 716.555 52.2924 716.045 52.5924C715.535 52.8924 714.98 53.0424 714.38 53.0424ZM756.666 109.787C752.316 109.787 748.401 108.737 744.921 106.637C741.471 104.507 738.726 101.597 736.686 97.9074C734.676 94.2174 733.671 90.0174 733.671 85.3074C733.671 80.5674 734.676 76.3674 736.686 72.7074C738.696 69.0174 741.426 66.1224 744.876 64.0224C748.356 61.8924 752.286 60.8274 756.666 60.8274C761.046 60.8274 765.006 61.8924 768.546 64.0224C772.086 66.1524 774.726 69.0924 776.466 72.8424V62.2674H781.236V108.347H776.466V97.6824C774.516 101.462 771.801 104.432 768.321 106.592C764.871 108.722 760.986 109.787 756.666 109.787ZM757.656 105.557C761.376 105.557 764.661 104.702 767.511 102.992C770.391 101.252 772.641 98.8524 774.261 95.7924C775.911 92.7324 776.736 89.2374 776.736 85.3074C776.736 81.3474 775.911 77.8524 774.261 74.8224C772.641 71.7624 770.391 69.3774 767.511 67.6674C764.661 65.9274 761.376 65.0574 757.656 65.0574C753.936 65.0574 750.636 65.9274 747.756 67.6674C744.906 69.3774 742.656 71.7624 741.006 74.8224C739.356 77.8524 738.531 81.3474 738.531 85.3074C738.531 89.2374 739.356 92.7324 741.006 95.7924C742.656 98.8224 744.906 101.207 747.756 102.947C750.636 104.687 753.936 105.557 757.656 105.557Z" fill="white"/>
<path d="M288.486 162.761L281.664 181.542H278.876L286.731 160.935H288.528L288.486 162.761ZM294.203 181.542L287.368 162.761L287.325 160.935H289.123L297.006 181.542H294.203ZM293.85 173.913V176.149H282.272V173.913H293.85ZM305.342 181.542H301.039L301.068 179.319H305.342C306.814 179.319 308.04 179.013 309.022 178.4C310.003 177.777 310.739 176.909 311.229 175.795C311.729 174.673 311.98 173.361 311.98 171.861V170.601C311.98 169.422 311.838 168.375 311.555 167.459C311.272 166.535 310.857 165.756 310.309 165.124C309.762 164.482 309.092 163.997 308.3 163.666C307.517 163.336 306.616 163.171 305.597 163.171H300.954V160.935H305.597C306.946 160.935 308.177 161.161 309.29 161.614C310.404 162.058 311.362 162.704 312.164 163.553C312.975 164.393 313.598 165.412 314.032 166.61C314.466 167.799 314.683 169.139 314.683 170.63V171.861C314.683 173.352 314.466 174.696 314.032 175.894C313.598 177.083 312.97 178.098 312.149 178.937C311.338 179.777 310.357 180.423 309.206 180.876C308.064 181.32 306.776 181.542 305.342 181.542ZM302.497 160.935V181.542H299.766V160.935H302.497ZM331.879 179.319V181.542H320.967V179.319H331.879ZM321.519 160.935V181.542H318.787V160.935H321.519ZM330.435 169.795V172.017H320.967V169.795H330.435ZM331.737 160.935V163.171H320.967V160.935H331.737ZM342.861 173.46H337.356V171.238H342.861C343.927 171.238 344.791 171.068 345.451 170.729C346.112 170.389 346.593 169.917 346.895 169.313C347.206 168.709 347.362 168.021 347.362 167.247C347.362 166.539 347.206 165.874 346.895 165.251C346.593 164.629 346.112 164.129 345.451 163.751C344.791 163.364 343.927 163.171 342.861 163.171H337.993V181.542H335.261V160.935H342.861C344.418 160.935 345.734 161.204 346.81 161.742C347.886 162.279 348.702 163.025 349.258 163.978C349.815 164.921 350.093 166.002 350.093 167.219C350.093 168.54 349.815 169.667 349.258 170.601C348.702 171.535 347.886 172.248 346.81 172.738C345.734 173.22 344.418 173.46 342.861 173.46ZM361.161 160.935V181.542H358.472V160.935H361.161ZM367.785 160.935V163.171H351.863V160.935H367.785ZM367.402 180.155C367.402 179.711 367.539 179.338 367.813 179.036C368.096 178.725 368.502 178.569 369.03 178.569C369.558 178.569 369.959 178.725 370.233 179.036C370.516 179.338 370.658 179.711 370.658 180.155C370.658 180.589 370.516 180.957 370.233 181.258C369.959 181.56 369.558 181.711 369.03 181.711C368.502 181.711 368.096 181.56 367.813 181.258C367.539 180.957 367.402 180.589 367.402 180.155ZM390.217 162.761L383.395 181.542H380.607L388.462 160.935H390.259L390.217 162.761ZM395.935 181.542L389.099 162.761L389.056 160.935H390.854L398.737 181.542H395.935ZM395.581 173.913V176.149H384.004V173.913H395.581ZM416.556 171.281V178.824C416.301 179.202 415.895 179.626 415.339 180.098C414.782 180.56 414.013 180.966 413.032 181.315C412.06 181.655 410.805 181.825 409.267 181.825C408.012 181.825 406.856 181.608 405.799 181.174C404.752 180.73 403.842 180.088 403.068 179.249C402.304 178.4 401.709 177.371 401.285 176.163C400.869 174.946 400.662 173.569 400.662 172.031V170.431C400.662 168.893 400.841 167.521 401.2 166.313C401.568 165.105 402.105 164.081 402.813 163.242C403.521 162.393 404.389 161.751 405.417 161.317C406.446 160.873 407.625 160.652 408.956 160.652C410.531 160.652 411.847 160.925 412.904 161.473C413.97 162.01 414.801 162.756 415.395 163.709C415.999 164.662 416.386 165.747 416.556 166.964H413.824C413.701 166.219 413.456 165.539 413.088 164.926C412.73 164.313 412.215 163.822 411.546 163.454C410.876 163.077 410.012 162.888 408.956 162.888C408.003 162.888 407.177 163.062 406.479 163.412C405.781 163.761 405.205 164.261 404.752 164.912C404.299 165.563 403.96 166.351 403.733 167.275C403.516 168.2 403.408 169.243 403.408 170.403V172.031C403.408 173.22 403.544 174.281 403.818 175.215C404.101 176.149 404.502 176.947 405.021 177.607C405.54 178.258 406.158 178.753 406.875 179.093C407.602 179.433 408.404 179.603 409.281 179.603C410.253 179.603 411.041 179.522 411.645 179.362C412.248 179.192 412.72 178.994 413.06 178.768C413.4 178.532 413.659 178.31 413.838 178.102V173.488H409.069V171.281H416.556ZM424.014 160.935V181.542H421.283V160.935H424.014ZM441.479 179.319V181.542H431.176V179.319H441.479ZM431.713 160.935V181.542H428.982V160.935H431.713ZM457.698 179.319V181.542H446.786V179.319H457.698ZM447.338 160.935V181.542H444.607V160.935H447.338ZM456.255 169.795V172.017H446.786V169.795H456.255ZM457.557 160.935V163.171H446.786V160.935H457.557ZM460.727 180.155C460.727 179.711 460.864 179.338 461.137 179.036C461.42 178.725 461.826 178.569 462.355 178.569C462.883 178.569 463.284 178.725 463.558 179.036C463.841 179.338 463.982 179.711 463.982 180.155C463.982 180.589 463.841 180.957 463.558 181.258C463.284 181.56 462.883 181.711 462.355 181.711C461.826 181.711 461.42 181.56 461.137 181.258C460.864 180.957 460.727 180.589 460.727 180.155ZM483.542 162.761L476.72 181.542H473.932L481.787 160.935H483.584L483.542 162.761ZM489.259 181.542L482.423 162.761L482.381 160.935H484.178L492.062 181.542H489.259ZM488.906 173.913V176.149H477.328V173.913H488.906ZM499.251 175.314L503.342 160.935H505.323L504.177 166.525L499.775 181.542H497.808L499.251 175.314ZM495.02 160.935L498.275 175.031L499.251 181.542H497.298L492.302 160.935H495.02ZM510.616 175.017L513.801 160.935H516.532L511.55 181.542H509.597L510.616 175.017ZM505.62 160.935L509.597 175.314L511.041 181.542H509.073L504.828 166.525L503.667 160.935H505.62ZM532.652 179.319V181.542H521.74V179.319H532.652ZM522.292 160.935V181.542H519.561V160.935H522.292ZM531.209 169.795V172.017H521.74V169.795H531.209ZM532.511 160.935V163.171H521.74V160.935H532.511ZM547.018 176.333C547.018 175.852 546.942 175.427 546.791 175.059C546.65 174.682 546.395 174.342 546.027 174.04C545.668 173.739 545.168 173.451 544.527 173.177C543.894 172.903 543.092 172.625 542.121 172.342C541.102 172.04 540.182 171.705 539.361 171.337C538.54 170.96 537.837 170.531 537.252 170.049C536.667 169.568 536.219 169.016 535.907 168.393C535.596 167.771 535.44 167.058 535.44 166.256C535.44 165.454 535.606 164.714 535.936 164.034C536.266 163.355 536.738 162.765 537.351 162.265C537.974 161.756 538.714 161.359 539.573 161.076C540.432 160.793 541.389 160.652 542.446 160.652C543.994 160.652 545.305 160.949 546.381 161.543C547.466 162.128 548.291 162.897 548.857 163.85C549.424 164.794 549.707 165.803 549.707 166.879H546.989C546.989 166.105 546.824 165.421 546.494 164.827C546.164 164.223 545.664 163.751 544.994 163.412C544.324 163.062 543.475 162.888 542.446 162.888C541.474 162.888 540.672 163.034 540.04 163.327C539.408 163.619 538.936 164.015 538.625 164.516C538.323 165.016 538.172 165.586 538.172 166.228C538.172 166.662 538.262 167.058 538.441 167.417C538.63 167.766 538.917 168.091 539.304 168.393C539.7 168.695 540.201 168.974 540.804 169.228C541.418 169.483 542.149 169.729 542.998 169.964C544.168 170.295 545.178 170.663 546.027 171.068C546.876 171.474 547.574 171.932 548.121 172.441C548.678 172.941 549.089 173.512 549.353 174.154C549.626 174.786 549.763 175.503 549.763 176.305C549.763 177.145 549.593 177.904 549.254 178.584C548.914 179.263 548.428 179.843 547.796 180.324C547.164 180.806 546.404 181.178 545.517 181.442C544.64 181.697 543.659 181.825 542.574 181.825C541.621 181.825 540.682 181.692 539.757 181.428C538.842 181.164 538.007 180.768 537.252 180.239C536.507 179.711 535.907 179.06 535.455 178.286C535.011 177.503 534.789 176.597 534.789 175.569H537.507C537.507 176.277 537.644 176.885 537.917 177.395C538.191 177.895 538.563 178.31 539.035 178.64C539.516 178.97 540.059 179.216 540.663 179.376C541.276 179.527 541.913 179.603 542.574 179.603C543.526 179.603 544.333 179.47 544.994 179.206C545.654 178.942 546.154 178.565 546.494 178.074C546.843 177.583 547.018 177.003 547.018 176.333ZM569.11 170.587V171.889C569.11 173.437 568.917 174.824 568.53 176.05C568.143 177.277 567.586 178.319 566.86 179.178C566.133 180.037 565.261 180.692 564.242 181.145C563.232 181.598 562.1 181.825 560.845 181.825C559.628 181.825 558.51 181.598 557.491 181.145C556.481 180.692 555.604 180.037 554.858 179.178C554.122 178.319 553.551 177.277 553.146 176.05C552.74 174.824 552.537 173.437 552.537 171.889V170.587C552.537 169.04 552.735 167.657 553.132 166.44C553.537 165.214 554.108 164.171 554.844 163.313C555.58 162.444 556.453 161.784 557.462 161.331C558.481 160.878 559.599 160.652 560.817 160.652C562.072 160.652 563.204 160.878 564.213 161.331C565.232 161.784 566.105 162.444 566.832 163.313C567.568 164.171 568.129 165.214 568.516 166.44C568.912 167.657 569.11 169.04 569.11 170.587ZM566.407 171.889V170.559C566.407 169.332 566.28 168.247 566.025 167.304C565.78 166.36 565.416 165.568 564.935 164.926C564.454 164.284 563.864 163.798 563.166 163.468C562.477 163.138 561.694 162.973 560.817 162.973C559.967 162.973 559.198 163.138 558.51 163.468C557.83 163.798 557.245 164.284 556.755 164.926C556.274 165.568 555.901 166.36 555.637 167.304C555.372 168.247 555.24 169.332 555.24 170.559V171.889C555.24 173.125 555.372 174.22 555.637 175.173C555.901 176.116 556.278 176.913 556.769 177.565C557.269 178.206 557.859 178.692 558.538 179.022C559.227 179.353 559.996 179.518 560.845 179.518C561.732 179.518 562.52 179.353 563.208 179.022C563.897 178.692 564.478 178.206 564.949 177.565C565.431 176.913 565.794 176.116 566.039 175.173C566.284 174.22 566.407 173.125 566.407 171.889ZM574.064 160.935H576.71L583.461 177.734L590.198 160.935H592.859L584.48 181.542H582.414L574.064 160.935ZM573.201 160.935H575.536L575.918 173.503V181.542H573.201V160.935ZM591.373 160.935H593.708V181.542H590.991V173.503L591.373 160.935ZM611.597 179.319V181.542H600.686V179.319H611.597ZM601.237 160.935V181.542H598.506V160.935H601.237ZM610.154 169.795V172.017H600.686V169.795H610.154ZM611.456 160.935V163.171H600.686V160.935H611.456ZM614.626 180.155C614.626 179.711 614.763 179.338 615.037 179.036C615.32 178.725 615.725 178.569 616.254 178.569C616.782 178.569 617.183 178.725 617.457 179.036C617.74 179.338 617.881 179.711 617.881 180.155C617.881 180.589 617.74 180.957 617.457 181.258C617.183 181.56 616.782 181.711 616.254 181.711C615.725 181.711 615.32 181.56 615.037 181.258C614.763 180.957 614.626 180.589 614.626 180.155Z" fill="white"/>
<path fill-rule="evenodd" clip-rule="evenodd" d="M171.29 76.01C171.26 76.44 171.23 81.69 169.52 87.65C167.03 96.3 163.1 99.97 162.7 100.89C162.89 101.04 169.65 96.66 177.42 96.97C185.95 97.31 186.03 101.68 186.15 102C186.16 102.48 186.88 103.82 183.78 106.15C182.17 107.36 179.69 108.17 178 109.44C176.83 110.31 176.14 110.63 176.2 112.25C176.21 112.49 176.74 113.85 178.12 113.87C179.44 113.89 181.53 113.01 182.19 113.8C183.01 114.77 183.13 117.96 181.76 119.55C180.54 120.97 177.69 120.93 175.35 120.3C172.25 119.45 169.02 117.29 168.88 116.85C168.73 116.39 168.71 113.02 165.78 108.15C163.74 104.76 162.51 102.37 161.63 102.16C161.54 102.41 163.54 104.63 166.81 111.98C167.61 113.77 168.04 115.23 168.35 116.78C168.79 118.96 168.95 120.74 168.88 120.99C163.97 120.86 159.84 120.33 152.63 122.82C144.85 125.5 137.09 128.54 136.97 128.54C136.71 128.78 136.52 130.48 136.24 132.17C135.96 133.89 135.26 134.58 135.64 135.15C135.87 135.49 135.96 135.63 136.47 136.07C137.18 136.67 138.2 137.9 139.09 138.99C140.39 140.57 148.64 151.87 142.76 157.18C139.08 160.5 133.14 161.36 127.88 158.71C122.84 156.17 118.71 149.55 118.32 149.52C118.13 149.84 119.07 153.52 120.29 155.13C121.19 156.28 124.14 159.54 128.49 161.29C129.85 161.84 131.02 162.28 132.33 162.55C133.38 162.76 134.67 162.78 134.99 163.26C135.49 164.03 134.23 166.01 132.82 166.49C131.33 167 130 167.03 127.71 166.1C123.66 163.89 122.34 162.27 119.97 159.05C119.74 158.76 119.49 158.33 119.27 158.53C119.26 159.36 118.66 166.84 115.47 170.84C110.9 176.56 106.24 175.86 105.13 175.68C104.86 175.64 100.52 175.45 94.78 171.2C90.61 168.12 87.51 162.2 86.22 159.73C86.2 159.69 91.66 156.06 101.61 154.05C108.85 152.59 117.26 153.68 117.42 153.68C117.09 152.01 117.04 150.23 116.61 148.78C116.33 148.75 109.05 146.57 102.54 147.07C94.53 147.68 87.06 151.19 85.86 151.73C85.69 151.37 83.24 146.33 83.17 136.54C83.11 128.93 85.7 124.86 85.72 124.8C85.76 124.7 86.34 123.44 86.38 123.32C86.55 122.81 87.77 120.84 87.87 120.68C87.98 120.48 88.53 119.66 88.69 119.44C89.1 118.88 89.7 118.26 90.18 117.71C90.35 117.52 90.63 117.23 90.84 117.05C91.74 116.27 92.38 115.96 93.23 115.32C93.55 115.08 93.94 114.94 94.3 114.66C94.65 114.38 95.33 114.03 95.87 113.75C92.27 114.33 89.91 115.65 87.4 117.61C84.95 119.52 83.07 122.1 81.9 124.99C79.71 130.39 79.82 136.19 80.5 140.58C81.01 147.25 85.38 157.42 85.33 158.03C82.42 152.82 81.95 151.71 80.02 145.45C78.1 138.25 77.69 134.43 79.56 126.53C80.28 123.49 83.01 119.32 82.99 119.03C82.98 118.82 79.12 116.89 74.94 113.9C69.91 110.31 64.26 105.47 62.56 103.79C62.55 103.78 63.06 102.05 63.5 99.72C63.97 97.23 64.27 93.98 65.71 91.74C69.07 86.5 71.49 87.23 71.51 87.22C71.66 87.3 77.12 90.93 78.63 91.71C79.19 92 85.84 94.56 87 94.94C87.02 94.95 87.63 95.51 86.24 92.67C85.57 91.29 85.01 89.74 84.46 87.84C83.51 84.55 82.97 80.95 82.8 79C81.68 79.67 80.95 80.64 78.91 81.92C78.2 82.36 76.15 83.94 72.81 83.9C69.27 83.86 68.59 83.31 66.74 82.33C63.39 80.56 61.07 78.52 59.47 77.67C61.98 75.95 63.55 74.65 67.91 73.84C71.7 73.43 72.35 73.77 74.71 74.25C74.22 73.78 72.67 73.14 70.37 71.1C68.34 69.31 67.71 68.9 65.42 64.63C63.41 60.88 63.82 55.12 63.9 54.21C65.31 54.14 69.4 54.72 73.4 56.98C76.3 58.62 78.62 60.97 79.36 61.82C81.47 64.26 81.89 65.58 82.46 66.9C82.84 68.03 82.82 68.23 82.96 68.31C83.08 67.57 83.21 66.86 83.33 66.07C83.52 65.07 83.66 64.67 83.98 63.43C86.55 54.62 91.04 48.95 96.08 43.11C94.03 40.66 92.4 39.32 90.35 37.41C92.67 35.48 116.87 17.33 143.38 31.32C173.62 47.25 171.34 75.21 171.29 76.01ZM106.13 42.5C100.42 45.29 97.6 47.96 94.07 52.01C91.13 55.39 88.4 59.8 86.9 65.33C86.15 68.08 85.95 70.32 86.07 73.49C87.18 71.58 87.38 70.9 87.66 70.14C88.71 67.38 89.72 65.32 90.83 62.94C93.72 56.77 98.05 51.92 102.81 47.52C104.59 45.87 109.29 42.54 109.23 41.66C109.42 41.57 107.9 41.93 106.13 42.5ZM70.21 67.47C71.95 69.65 74.03 72.06 76.47 72.78C77.82 73.18 79.32 73.18 79.77 72.28C77.27 70.92 74.38 69.63 71.41 65.96C66.17 59.48 65.82 57.46 65.78 57.46C65.78 57.52 65.14 58.77 67.23 62.62C68.55 65.07 69.18 66.18 70.21 67.47ZM117.09 120.49C117.35 120.54 124.34 121.7 131.13 120.72C137.6 119.79 144.13 116.33 144.72 116.05C145.89 115.48 147.14 114.64 148.25 113.96C148.42 113.86 148.59 113.76 148.75 113.65C157.58 107.7 160.18 102.78 161.49 100.83C162.14 99.87 163.23 97.77 163.26 97.71C163.34 97.56 166.01 92.24 166.53 87.94C167.07 83.49 165.58 81.5 165.51 81.38C164.18 79.04 161.15 78.79 159.69 78.61C155.57 78.08 150.53 78.43 150.38 78.45C147.47 78.83 136.74 79.57 131.18 77.65C129.15 76.95 127.06 76.01 125.18 74.95C119.4 71.68 114.91 67.2 114.19 66.6C113.56 66.08 110.41 63.07 106.89 61.99C102.06 60.5 95.77 67.23 93.22 77.12C92.17 81.21 91.08 91.98 94.73 96.73C97.86 100.81 102.09 102.39 106.1 102.19C107.34 102.13 111.23 101.74 117.45 99.53C121.16 98.21 124.73 97.64 128.7 98.45C133.11 99.35 136.95 104.39 140.33 108.36C144.42 113.16 148.76 112.89 149 112.87C147.04 114.26 144.9 115.15 142.65 115.99C131.68 120.07 123.68 119.22 114.52 117.25C114.85 117.32 115.49 118.53 115.64 118.73C115.97 119.2 116.75 120.42 117.09 120.49ZM73.79 82.24C71.94 82.58 70.62 82.1 69.42 81.7C67.64 81.11 66.23 80.39 64.63 79.46C63.19 78.69 63.58 78.49 63.8 78.54C64.58 78.84 66.89 80.31 71.88 80.17C76.08 80.05 78.67 78.96 79.21 78.76C79.46 78.95 78.33 80.01 77.05 80.89C76.41 81.33 75.53 81.93 73.79 82.24ZM101.79 111.19C96.9 107.93 93.63 104.61 89.59 98.73C89.81 103.39 94.85 109.75 98.4 111.86C99.13 112.29 99.31 111.98 100.06 111.78C100.79 111.59 101.66 111.33 101.79 111.19ZM116 141.25C116.95 136.99 117.11 133.89 116.7 129.62C116.21 124.59 114.73 119.58 111.64 116.73C109.56 114.82 106.3 113.43 102.86 113.69C97.57 114.1 94.44 116.32 92.48 120.26C95.75 118.18 100.37 115.91 105.52 116.96C107.03 117.27 108.68 118.23 109.73 119.27C112 121.55 113.44 125.89 114.02 129.75C114.74 134.54 114.83 139.4 114.76 144.45C115.47 143.38 115.76 142.33 116 141.25ZM121.72 138.56C122.13 139.88 125.51 140.64 128.29 139.42C130.56 138.33 132.58 136.2 132.03 134.52C131.91 134.16 130.03 135.81 127.51 137.01C124.99 138.21 121.69 137.97 121.72 138.56Z" fill="white"/>
<path fill-rule="evenodd" clip-rule="evenodd" d="M123.97 85.9299C122.55 86.0299 119.92 84.6399 118.37 84.9999C118.6 86.6799 118.88 88.3899 118.24 90.1899C117.57 92.0799 117 92.5099 116 93.5499C112.71 96.9899 107.87 95.2899 106.6 94.6099C104.45 93.4499 103.21 91.5199 102.75 90.0599C102.05 87.8499 102.38 86.1399 102.56 85.4999C103.03 83.8299 103.76 82.7299 104.29 82.1099C105.11 81.0999 106.59 79.8899 108.29 79.4699C110.01 79.0499 111.82 79.3299 112.08 79.3099C111.91 78.5999 110.14 76.3099 107.98 76.1199C105.4 75.8999 102.44 77.9199 102.26 78.0399C102.3 78.0099 102.19 76.5999 102.47 75.0399C102.69 73.7799 103.08 72.7499 103.39 71.9399C103.69 71.1499 104.91 67.7099 108.71 68.1999C112.39 68.6799 114.84 73.5999 115.48 74.6499C116.07 75.6199 116.59 76.4799 117.72 78.4799C120.12 82.7199 123.05 85.2699 123.97 85.9299ZM104.09 87.8399C104.54 90.9999 107.24 94.1599 110.92 93.8499C114.46 93.5599 117.14 90.2299 116.43 85.6199C115.79 86.3999 115.44 86.9299 115.02 87.9899C114.73 86.7599 114.38 85.3599 113.72 83.0499C113.44 82.0799 113.34 81.6399 112.81 81.4399C110.33 81.1199 108.98 80.8699 107.31 81.8599C105.39 82.9899 103.96 85.1799 104.09 87.8399Z" fill="white"/>
<path fill-rule="evenodd" clip-rule="evenodd" d="M69.3799 86.5299C69.2999 86.5299 65.3299 88.2499 63.8699 93.5799C63.1299 96.2999 62.9299 99.0899 62.8899 99.4499C62.8299 99.9499 62.7499 100.51 62.6299 101.01C62.4399 101.79 62.0199 102.6 61.5099 103.21C60.8599 103.98 59.9699 104.53 59.0199 104.83C58.3199 105.05 57.5799 105.19 56.8499 105.24C56.2099 105.28 55.4999 105.33 54.8599 105.2C54.2299 105.07 52.3099 104.55 51.6599 103.35C51.0199 102.19 51.6199 100.36 51.7599 100.05C51.9799 99.5699 52.1799 98.9399 52.7099 98.7099C52.9699 98.5999 53.3499 98.4599 53.6299 98.4399C54.2799 98.3899 54.6599 98.4599 55.0899 98.4199C55.4699 98.3899 55.8899 98.3299 56.1599 98.0299C56.2899 97.8799 56.3499 97.7599 56.3699 97.5699C56.4799 96.4199 56.0999 95.2299 54.8999 94.4999C53.9599 93.9299 53.0099 93.3499 52.0599 92.8099C51.1099 92.2699 50.0899 91.7099 49.1399 91.1699C48.3499 90.7199 47.6999 90.0499 47.1599 89.2899C46.5599 88.4499 46.4299 87.5999 46.7599 86.6099C47.3499 84.8499 48.7499 83.3299 50.3599 82.4199C51.4499 81.7999 52.0999 81.3499 54.1999 81.2199C54.9999 81.1699 56.0599 81.3099 56.8599 81.4099C57.2899 81.4699 57.8499 81.5699 58.2799 81.6599C58.6899 81.7499 58.9399 81.8699 59.3499 81.9599C59.7699 82.0499 60.1099 82.1499 60.5199 82.2699C60.9399 82.3899 61.3399 82.4699 61.7499 82.6199C62.0799 82.7399 62.3699 82.8399 62.6999 82.9599C63.2399 83.1499 63.8699 83.4299 64.3999 83.6499C65.2499 83.9999 66.0199 84.3799 66.8299 84.8199C67.2299 85.0399 67.6599 85.2999 68.0399 85.5499C68.1999 85.6599 68.4599 85.7499 68.5999 85.8799C68.6499 85.9099 69.3099 86.5299 69.3799 86.5299Z" fill="white"/>
<path fill-rule="evenodd" clip-rule="evenodd" d="M111.07 83C110.37 83.77 110.07 84.22 110.05 85.15C110.01 86.87 111.43 88.83 113.54 88.55C114.02 88.49 114.46 88.35 115.01 88.26C114.92 91.18 111.86 93.42 108.38 92.46C108.65 89.86 106.21 88.91 105.37 89.01C104.49 84.85 108.11 82.33 111.07 83Z" fill="white"/>
<path fill-rule="evenodd" clip-rule="evenodd" d="M161 95.3201C160.97 95.3501 158.67 91.2801 156.16 90.5201C154.26 89.9501 152 90.6201 152.05 90.7801C152.12 90.9901 154.96 92.7101 155.29 96.7001C155.58 100.2 153.74 102.3 153.68 102.43C153.6 102.62 152.38 104.38 150.38 105.28C147.1 106.76 145.13 105.88 144.31 105.69C143.36 105.24 141.05 104.51 139.45 101.69C138.66 100.3 138.19 97.7701 138.63 95.6801C139.06 93.6301 140.52 92.0201 141.05 91.5101C141.19 91.3701 139.09 89.6901 138.94 89.5001C138.85 89.3801 138.12 88.7601 138.18 88.6101C138.2 88.5701 139.74 88.8601 142.89 88.1101C146.36 87.2901 150.88 86.1901 154.92 86.3801C159.88 86.6101 160.52 90.3601 160.64 90.7401C160.97 91.7501 160.95 92.7501 161 93.7901C161.01 93.9701 160.98 94.1601 160.96 94.3401C160.95 94.4701 161.05 95.2801 161 95.3201ZM140.38 99.2401C140.91 101.4 142.92 103.59 145.15 104.1C149.18 105.03 152.37 102.56 153.22 99.5901C153.38 99.0301 153.56 97.9801 153.55 97.3601C153.51 95.0001 151.45 92.2701 150.08 91.8401C149.59 91.6901 149.4 92.1701 148.93 92.3501C148.65 92.4601 148.17 92.2401 147.93 92.5001C147.57 92.9001 146.27 94.3601 147.02 96.4201C147.81 98.5801 150.61 98.6701 151.81 97.8701C151.71 99.7501 150.18 101.53 149.25 102.03C147.99 102.7 146.16 102.71 145.08 102.23C145.14 101.79 145.07 101.19 144.98 100.82C144.93 100.59 144.41 99.7301 143.73 99.3101C143.12 98.9301 142.5 98.8301 141.97 98.8401C141.47 96.0801 142.99 94.0701 144.56 93.0401C143.96 92.8201 143.27 92.6801 142.72 92.3801C140.56 93.9401 139.71 96.4901 140.38 99.2401Z" fill="white"/>
<path fill-rule="evenodd" clip-rule="evenodd" d="M49.3499 116.31C50.8099 122.11 50.6799 121.73 51.4899 124.91C51.6199 125.4 50.7499 125.17 50.8899 126.03C51.4599 129.64 54.4399 128.88 55.4299 128.53C55.9199 128.07 55.5599 127.95 55.7399 127.28C55.9499 127.28 63.3499 125.25 64.4199 125.09C62.2099 127.5 60.5599 129.18 58.2199 131.32C57.2799 130.82 55.5099 131.64 55.5699 134.17C55.6099 135.68 57.0099 136.48 57.2299 136.79C57.9299 136.52 57.5499 136.74 58.1799 136.35C60.5299 138.62 62.3199 140.47 64.5299 142.6C60.9899 141.8 59.8599 141.54 55.9199 140.42C55.8799 139.69 55.7099 139.28 55.0099 139.03C54.6699 138.89 52.7299 138.68 51.8199 139.69C50.7599 140.88 50.4199 142.33 51.4999 142.86C50.5499 147.1 50.2299 148.21 49.3799 151.54C47.9799 146.92 46.9799 143.78 46.9799 142.99C46.9799 142.89 47.4199 142.63 47.6799 142.28C47.6899 142.26 47.5299 139.63 45.7799 139.13C43.2199 138.41 42.6499 139.88 42.6599 140.35C38.6299 141.52 37.8799 141.73 34.1599 142.69C36.2399 140.36 38.0399 138.6 40.2699 136.26C40.3899 136.31 40.8799 136.8 41.3199 136.71C41.9699 136.58 43.1899 134.64 42.9399 133.32C42.6299 131.64 41.7899 131.28 41.2199 131.05C40.6299 131.22 40.9999 131.11 40.3999 131.34C38.2099 129.16 38.2399 129.37 34.1499 124.98C40.2599 126.52 41.5099 126.86 42.5899 127.34C42.8299 127.79 42.7399 128.18 43.0399 128.5C43.2699 128.74 44.8199 128.87 45.6499 128.71C46.7899 128.49 47.7499 126.1 47.7199 125.52C47.7099 125.34 46.9499 125.35 47.0899 124.66C47.4999 122.66 48.1999 120.63 49.3499 116.31ZM49.3499 121.51C49.1499 121.94 48.4599 124.15 48.5399 124.47C48.5899 124.68 49.3699 125.09 49.3999 125.09C49.4399 125.09 49.9899 124.57 50.0599 124.42C50.1899 124.09 49.5499 121.97 49.3499 121.51ZM38.5399 127.67C39.3999 128.6 40.8499 129.8 40.9099 129.86C41.1999 129.64 41.6699 129.61 41.7699 129.57C41.7999 129.55 41.6299 128.92 41.6899 128.59C40.6199 128.23 39.8599 127.9 38.5399 127.67ZM57.1199 128.44C57.0499 129.07 57.0799 128.99 56.9799 129.55C57.4799 129.71 57.7499 129.86 57.8899 129.83C57.9399 129.82 59.0199 128.85 59.5999 127.73C58.8899 127.95 58.2999 128.22 57.1199 128.44ZM47.7099 134.65C48.1199 135.82 50.5999 136.12 50.9699 134.31C51.2499 132.95 50.1899 131.7 48.6799 132.22C47.7199 132.55 47.3399 133.59 47.7099 134.65ZM38.5399 140.16C39.8499 139.8 39.8799 139.8 41.6799 139.19C41.6799 139.19 41.7199 138.55 41.7199 138.19C40.7699 137.97 40.7899 137.95 40.7799 137.96C39.7299 138.86 39.3099 139.31 38.5399 140.16ZM57.9399 138C57.5199 138.09 57.5199 138.09 57.0699 138.15C57.0599 138.49 57.0799 138.84 57.1299 139.13C57.1599 139.29 58.2599 139.53 59.8999 140.03C59.0799 139.02 58.3399 138.43 57.9399 138ZM48.5299 143.28C49.0599 144.75 49.0599 144.86 49.3499 145.93C49.7399 144.78 49.6599 145.06 50.1299 143.32C49.8599 143.11 49.4499 142.72 49.3799 142.72C49.2599 142.72 48.8199 143.06 48.5299 143.28Z" fill="white"/>
<path fill-rule="evenodd" clip-rule="evenodd" d="M111.85 183.44C113.31 189.24 113.18 188.86 113.99 192.04C114.12 192.53 113.25 192.3 113.39 193.16C113.96 196.77 116.94 196.01 117.93 195.66C118.42 195.2 118.06 195.08 118.24 194.41C118.45 194.41 125.85 192.38 126.92 192.22C124.71 194.63 123.06 196.31 120.72 198.45C119.78 197.95 118.01 198.77 118.07 201.3C118.11 202.81 119.51 203.61 119.73 203.92C120.43 203.65 120.05 203.87 120.68 203.48C123.03 205.75 124.82 207.6 127.03 209.73C123.49 208.93 122.36 208.67 118.42 207.55C118.38 206.82 118.21 206.41 117.51 206.16C117.17 206.02 115.23 205.81 114.32 206.82C113.26 208.01 112.92 209.46 114 209.99C113.05 214.23 112.73 215.34 111.88 218.67C110.48 214.05 109.48 210.91 109.48 210.12C109.48 210.02 109.92 209.76 110.18 209.41C110.19 209.39 110.03 206.76 108.28 206.26C105.72 205.54 105.15 207.01 105.16 207.48C101.13 208.65 100.38 208.86 96.6599 209.82C98.7399 207.49 100.54 205.73 102.77 203.39C102.89 203.44 103.38 203.93 103.82 203.84C104.47 203.71 105.69 201.77 105.44 200.45C105.13 198.77 104.29 198.41 103.72 198.18C103.13 198.35 103.5 198.24 102.9 198.47C100.71 196.29 100.74 196.5 96.6499 192.11C102.76 193.65 104.01 193.99 105.09 194.47C105.33 194.92 105.24 195.31 105.54 195.63C105.77 195.87 107.32 196 108.15 195.84C109.29 195.62 110.25 193.23 110.22 192.65C110.21 192.47 109.45 192.48 109.59 191.79C110 189.79 110.7 187.77 111.85 183.44ZM111.85 188.64C111.65 189.07 110.96 191.28 111.04 191.6C111.09 191.81 111.87 192.22 111.9 192.22C111.94 192.22 112.49 191.7 112.56 191.55C112.69 191.22 112.05 189.11 111.85 188.64ZM101.04 194.8C101.9 195.73 103.35 196.93 103.41 196.99C103.7 196.77 104.17 196.74 104.27 196.7C104.3 196.68 104.13 196.05 104.19 195.72C103.12 195.36 102.36 195.04 101.04 194.8ZM119.63 195.57C119.56 196.2 119.59 196.12 119.49 196.68C119.99 196.84 120.26 196.99 120.4 196.96C120.45 196.95 121.53 195.98 122.11 194.86C121.39 195.08 120.8 195.35 119.63 195.57ZM110.21 201.79C110.62 202.96 113.1 203.26 113.47 201.45C113.75 200.09 112.69 198.84 111.18 199.36C110.22 199.68 109.84 200.73 110.21 201.79ZM101.04 207.3C102.35 206.94 102.38 206.94 104.18 206.33C104.18 206.33 104.22 205.69 104.22 205.33C103.27 205.11 103.29 205.09 103.28 205.1C102.23 205.99 101.81 206.44 101.04 207.3ZM120.44 205.13C120.02 205.22 120.02 205.22 119.57 205.28C119.56 205.62 119.58 205.97 119.63 206.26C119.66 206.42 120.76 206.66 122.4 207.16C121.58 206.15 120.84 205.56 120.44 205.13ZM111.03 210.41C111.56 211.88 111.56 211.99 111.85 213.06C112.24 211.91 112.16 212.19 112.63 210.45C112.36 210.24 111.95 209.85 111.88 209.85C111.76 209.85 111.32 210.2 111.03 210.41Z" fill="white"/>
<path fill-rule="evenodd" clip-rule="evenodd" d="M171.33 134.53C172.79 140.33 172.66 139.95 173.47 143.13C173.6 143.62 172.73 143.39 172.87 144.25C173.44 147.86 176.42 147.1 177.41 146.75C177.9 146.29 177.54 146.17 177.72 145.5C177.93 145.5 185.33 143.47 186.4 143.31C184.19 145.72 182.54 147.4 180.2 149.54C179.26 149.04 177.49 149.86 177.55 152.39C177.59 153.9 178.99 154.7 179.21 155.01C179.91 154.74 179.53 154.96 180.16 154.57C182.51 156.84 184.3 158.69 186.51 160.82C182.97 160.02 181.84 159.76 177.9 158.64C177.86 157.91 177.69 157.5 176.99 157.25C176.65 157.11 174.71 156.9 173.8 157.91C172.74 159.1 172.4 160.55 173.48 161.08C172.53 165.32 172.21 166.43 171.36 169.76C169.96 165.14 168.96 162 168.96 161.21C168.96 161.11 169.4 160.85 169.66 160.5C169.67 160.48 169.51 157.85 167.76 157.35C165.2 156.63 164.63 158.1 164.64 158.57C160.61 159.74 159.86 159.95 156.14 160.91C158.22 158.58 160.02 156.82 162.25 154.48C162.37 154.53 162.86 155.02 163.3 154.93C163.95 154.8 165.17 152.86 164.92 151.54C164.61 149.86 163.77 149.5 163.2 149.27C162.61 149.44 162.98 149.33 162.38 149.56C160.19 147.38 160.22 147.59 156.13 143.2C162.24 144.74 164.15 145.46 164.57 145.56C164.72 145.95 164.75 146.34 165.02 146.72C165.22 146.99 166.8 147.09 167.63 146.93C168.77 146.71 169.73 144.32 169.7 143.74C169.69 143.56 168.93 143.57 169.07 142.88C169.48 140.88 170.17 138.85 171.33 134.53ZM171.33 139.73C171.13 140.16 170.44 142.37 170.52 142.69C170.57 142.9 171.35 143.31 171.38 143.31C171.42 143.31 171.97 142.79 172.04 142.64C172.17 142.31 171.52 140.2 171.33 139.73ZM160.52 145.89C161.38 146.82 162.83 148.02 162.89 148.08C163.18 147.86 163.65 147.83 163.75 147.79C163.78 147.77 163.61 147.14 163.67 146.81C162.59 146.45 161.83 146.12 160.52 145.89ZM179.1 146.66C179.03 147.29 179.06 147.21 178.96 147.77C179.46 147.93 179.73 148.08 179.87 148.05C179.92 148.04 181 147.07 181.58 145.95C180.87 146.17 180.27 146.44 179.1 146.66ZM169.69 152.87C170.1 154.04 172.58 154.34 172.95 152.53C173.23 151.17 172.17 149.92 170.66 150.44C169.7 150.77 169.32 151.81 169.69 152.87ZM160.52 158.38C161.83 158.02 161.86 158.02 163.66 157.41C163.66 157.41 163.7 156.77 163.7 156.41C162.75 156.19 162.77 156.17 162.76 156.18C161.71 157.08 161.29 157.53 160.52 158.38ZM179.92 156.22C179.5 156.31 179.5 156.31 179.05 156.37C179.04 156.71 179.06 157.06 179.11 157.35C179.14 157.51 180.24 157.75 181.88 158.25C181.06 157.24 180.32 156.65 179.92 156.22ZM170.5 161.5C171.03 162.97 171.03 163.08 171.32 164.15C171.71 163 171.63 163.28 172.1 161.54C171.83 161.33 171.42 160.94 171.35 160.94C171.24 160.94 170.8 161.28 170.5 161.5Z" fill="white"/>
</svg>
