<?xml version="1.0" encoding="UTF-8"?>
<svg id="Layer_2" data-name="Layer 2" xmlns="http://www.w3.org/2000/svg" viewBox="0 0 1236.58 388.9">
  <defs>
    <style>
      .cls-1 {
        fill: #ad2d5a;
      }

      .cls-1, .cls-2 {
        fill-rule: evenodd;
      }
    </style>
  </defs>
  <g id="Layer_1-2" data-name="Layer 1">
    <g>
      <path class="cls-1" d="m193.44,11.15c-15.19,2.02-19.24,8.1-25.32,23.29l-63.8,166.09h-8.1L23.29,31.4C16.2,14.18,12.15,13.17,0,11.15v-7.09h95.2v7.09c-18.23,1.01-24.31,1.01-24.31,12.15,0,5.06,5.06,17.21,8.1,24.31l37.47,89.12,35.45-93.16c3.04-6.08,6.08-13.17,6.08-19.25,0-11.14-8.1-12.15-24.31-13.17v-7.09h59.75v7.09h0Zm60.77,184.32h-67.86v-6.08c10.13-3.04,15.19-4.05,15.19-17.21v-84.06c0-12.15-4.05-14.18-15.19-16.2v-7.09h54.69v108.37c0,8.1,2.02,14.18,13.17,16.2v6.08ZM220.78,0c12.15,0,21.27,10.13,21.27,22.28s-9.12,21.27-21.27,21.27c-13.17,0-22.28-9.12-22.28-21.27S207.62,0,220.78,0Zm77.98,115.46c0-38.49,10.13-45.57,20.26-45.57s14.18,7.09,15.19,14.18c3.04,8.1,3.04,23.29,3.04,31.4h-38.49Zm67.86,44.57c-5.06,7.09-15.19,19.24-32.41,19.24-26.33,0-32.4-29.36-33.42-53.67h70.89c-1.01-14.18-4.05-63.81-53.67-63.81-32.41,0-57.73,26.33-57.73,67.86,0,48.61,28.36,69.88,56.71,69.88,23.29,0,39.5-9.12,56.71-35.45l-7.09-4.05h0Zm204.58-88.11c-5.06,1.01-9.12,1.01-14.18,14.18l-43.55,113.43h-7.09l-28.36-86.08h-1.01l-34.43,86.08h-7.09l-41.52-106.34c-8.1-18.23-9.12-20.26-16.2-21.27v-7.09h62.79v7.09c-4.05,0-11.14,1.01-11.14,8.1,0,6.07,10.13,27.34,24.31,65.82l19.24-48.61c-3.04-10.13-5.06-15.19-6.08-19.24-3.04-5.07-6.08-5.07-13.17-6.08v-7.09h66.84v7.09c-7.09,0-14.18,1.01-14.18,7.09s12.16,42.53,17.22,64.81h1.01c7.09-21.27,22.28-55.7,22.28-61.78,0-9.12-6.08-9.12-14.18-10.13v-7.09h38.49v7.1h0Zm125.58-10.13c-5.07-20.26-22.28-52.66-55.7-52.66-14.18,0-30.39,8.1-30.39,27.34,0,15.19,6.08,21.27,29.37,32.41l41.52,21.27c10.13,5.06,31.4,21.26,31.4,51.65,0,25.32-18.23,58.74-70.89,58.74-26.33,0-39.5-9.12-47.6-9.12-6.08,0-8.1,5.07-9.12,9.12h-8.1v-69.88h8.1c6.08,29.37,22.28,60.76,58.74,60.76,33.42,0,35.44-27.34,35.44-31.39,0-19.25-14.18-25.33-32.41-34.44l-18.23-9.12c-48.61-23.29-48.61-47.6-48.61-60.76,0-17.22,8.1-55.7,61.78-55.7,23.29,0,36.46,10.13,44.56,10.13,7.09,0,8.1-5.07,9.12-10.13h9.11v61.78h-8.09s0,0,0,0Zm68.86,68.87c0-32.41,2.03-60.76,23.3-60.76,17.21,0,21.26,17.21,21.26,60.76,0,36.46-2.02,59.75-21.26,59.75-23.3,0-23.3-29.36-23.3-59.75h0Zm-41.52,0c0,36.46,25.32,68.87,64.82,68.87s62.79-31.4,62.79-68.87c0-39.49-26.33-68.87-62.79-68.87-39.5,0-64.82,32.4-64.82,68.87h0Zm279.53,64.82h-65.83v-6.08c9.12-1.01,13.17-6.07,13.17-16.2v-68.87c0-8.1,0-24.31-16.2-24.31-11.14,0-23.29,14.18-23.29,17.21v75.96c0,6.07,1.01,14.18,14.18,16.2v6.08h-68.87v-6.08c11.14-2.02,15.2-4.05,15.2-17.21v-84.06c0-12.15-3.04-15.19-15.2-16.2v-7.09h54.69v20.26c4.05-6.07,16.2-23.29,40.51-23.29,16.21,0,38.49,8.1,38.49,39.49v71.91c0,6.07,0,15.19,13.17,16.2v6.08h0Zm74.94,0h-66.84v-6.08c10.12-3.04,14.18-4.05,14.18-17.21v-84.06c0-12.15-4.06-14.18-14.18-16.2v-7.09h53.67v108.37c0,8.1,2.02,14.18,13.17,16.2v6.08ZM1046.18,0c11.14,0,21.27,10.13,21.27,22.28s-10.13,21.27-21.27,21.27c-13.17,0-22.28-9.12-22.28-21.27S1033.01,0,1046.18,0Zm152.93,170.14c-13.17,18.23-31.39,29.37-53.67,29.37-36.46,0-60.76-30.39-60.76-64.82,0-55.7,40.51-72.92,66.84-72.92,20.26,0,43.55,10.13,43.55,30.39,0,18.23-16.2,18.23-19.25,18.23-15.19,0-15.19-14.18-15.19-29.36,0-8.1-7.09-11.14-12.15-11.14-21.27,0-23.29,35.44-23.29,47.6,0,40.51,17.22,62.79,38.48,62.79,16.21,0,24.31-8.1,30.39-15.19l5.06,5.06h0Zm0-113.42c0-9.12,7.09-17.22,17.22-17.22,9.12,0,16.2,8.1,16.2,17.22,0,10.13-7.09,17.21-16.2,17.21-10.13,0-17.22-7.09-17.22-17.21Zm17.22,21.27c11.14,0,20.26-9.12,20.26-21.27,0-11.14-9.12-20.26-20.26-20.26s-21.27,9.12-21.27,20.26c0,12.15,10.13,21.27,21.27,21.27Zm-5.07-19.25h5.07l6.07,10.13h4.06l-7.09-10.13c4.06-1.01,6.08-2.02,6.08-7.09,0-4.05-3.04-6.07-8.1-6.07h-9.12v23.29h3.04v-10.13h0Zm0-3.04v-7.09h5.07c3.04,0,5.06,0,5.06,3.04,0,4.06-2.02,4.06-5.06,4.06h-5.07Z"/>
      <g>
        <path class="cls-2" d="m112.3,340.8c0-6.35.91-14.52,2.72-20.87.91-.91,4.54-.91,5.44,0,0,4.54.91,9.98,3.63,15.43,4.54,7.25,10.89,10.89,19.06,10.89s16.33-6.36,16.33-17.25c0-7.26-3.63-12.7-11.8-19.06l-3.63-1.81c-8.17-6.36-15.43-14.52-15.43-23.59,0-18.15,15.43-29.95,34.48-29.95,10.89,0,19.96,2.72,26.32,7.26-1.82,4.53-4.54,10.89-6.35,19.06-.91,1.81-4.54,1.81-5.44,0,1.81-9.99-2.72-19.97-15.43-19.97-9.98,0-16.34,8.16-16.34,15.42,0,4.54,1.82,9.98,11.8,16.34l4.54,3.63c8.17,5.44,16.33,13.61,16.33,26.31,0,17.25-13.61,29.95-38.12,29.95-14.51,0-25.4-6.35-28.12-11.79h0Zm108.9-42.65c1.81,0,2.72,1.81,2.72,3.63,0,2.73-2.72,8.17-5.44,11.8-3.63,3.64-8.17,6.36-13.61,8.17,1.81-5.44,4.54-14.52,9.98-19.97,1.81-2.72,4.53-3.63,6.35-3.63Zm4.54-6.35c-6.35,0-14.52,1.81-21.78,8.16-11.8,9.08-19.06,23.6-19.06,36.3,0,9.08,4.54,16.33,14.52,16.33,12.7,0,24.5-6.35,30.85-17.24,0-1.82-.91-2.73-2.72-2.73-6.35,6.36-12.71,9.08-18.15,9.08-4.54,0-6.35-3.63-6.35-7.25,0-2.73,0-5.45.91-7.26,11.8-2.72,35.39-9.08,35.39-23.59,0-6.36-5.44-11.8-13.61-11.8h0Zm51.73,6.35c1.81,0,2.72,1.81,2.72,3.63,0,2.73-1.81,8.17-4.54,11.8-4.54,3.64-9.07,6.36-13.61,8.17.91-5.44,4.54-14.52,9.98-19.97,1.82-2.72,3.63-3.63,5.45-3.63Zm5.44-6.35c-7.26,0-14.52,1.81-22.69,8.16-10.89,9.08-19.06,23.6-19.06,36.3,0,9.08,5.44,16.33,15.43,16.33,12.7,0,23.59-6.35,30.85-17.24,0-1.82-.91-2.73-2.72-2.73-6.35,6.36-13.61,9.08-18.15,9.08s-6.35-3.63-6.35-7.25c0-2.73,0-5.45.91-7.26,10.89-2.72,35.39-9.08,35.39-23.59,0-6.36-5.44-11.8-13.61-11.8h0Zm86.21,9.07l-13.61,37.21c-.91,1.81-.91,2.72.91,2.72,2.72,0,9.07-4.53,15.43-10.89,1.81.91,2.72,1.81,2.72,3.63-5.44,7.26-19.06,19.06-30.85,19.06-3.63,0-6.35-3.63-6.35-6.35,0-1.81,0-3.64.91-7.26l12.71-38.12h-9.98c-1.81-.91-.91-4.53.91-5.44l12.7-1.81,9.98-13.62c.91-.91,2.72-1.81,4.54-1.81s4.54.91,5.44,2.73l-3.63,12.7h12.71c2.72,1.81.91,6.35-.91,7.25h-13.61Zm36.3-32.67c1.82-5.44,1.82-7.25-.91-8.17l-4.54-2.72c0-.91,0-1.81.91-3.63,4.54-1.81,19.06-4.54,26.32-4.54.91,0,.91.91,1.82,1.82-2.72,5.44-4.54,10.89-7.26,18.14l-15.43,44.47c3.63-5.44,8.17-9.97,12.71-13.61,6.35-4.53,12.71-8.16,18.15-8.16,6.35,0,10.89,4.53,10.89,12.7,0,11.8-7.26,26.31-13.61,35.39-5.44,6.36-13.61,12.7-21.78,12.7-3.63,0-8.17-1.81-8.17-6.35,0-3.64,3.63-6.36,5.44-6.36.91,0,1.81.91,2.72,1.81,1.82,2.73,2.72,2.73,3.63,2.73s.91-.91,2.72-3.64c4.54-10.89,10.89-29.04,10.89-36.3,0-1.81-.91-3.64-2.72-3.64-2.72,0-9.07,5.45-16.33,14.52-8.17,10.89-16.33,30.86-18.15,34.48-.91,1.81-4.54,2.72-7.26,2.72-3.63,0-9.07-.91-7.26-5.44l27.22-78.94h0Zm83.49,29.95c1.81,0,2.72,1.81,2.72,3.63,0,2.73-1.81,8.17-4.54,11.8-4.54,3.64-9.07,6.36-13.61,8.17.91-5.44,4.54-14.52,9.08-19.97,2.72-2.72,4.54-3.63,6.35-3.63h0Zm5.44-6.35c-7.26,0-14.52,1.81-22.69,8.16-10.89,9.08-19.06,23.6-19.06,36.3,0,9.08,5.44,16.33,15.43,16.33,12.7,0,23.59-6.35,30.85-17.24,0-1.82-1.81-2.73-2.72-2.73-7.26,6.36-13.61,9.08-19.06,9.08-3.63,0-5.44-3.63-5.44-7.25v-7.26c11.8-2.72,36.3-9.08,36.3-23.59,0-6.36-5.44-11.8-13.61-11.8h0Zm78.95,23.59c6.35-8.17,10.89-12.7,13.61-14.52,3.63-2.72,4.54-2.72,5.44-2.72,2.72,0,3.63,4.54,1.82,9.98-2.72,8.17-7.26,14.52-11.8,20.87-6.35,8.17-16.33,15.43-19.06,15.43-.91,0-1.81-.91-1.81-2.73,0-4.53,5.44-16.33,11.79-26.31h0Zm17.24-23.59c-8.17,0-18.15,3.63-27.22,11.8-10.89,9.97-18.15,23.59-18.15,35.39,0,8.17,3.63,13.61,9.98,13.61,16.33,0,27.22-15.42,33.58-25.41l-2.72,9.08c-1.81,4.53-2.72,8.17-2.72,9.98,0,3.63.91,6.35,5.44,6.35,13.61,0,25.4-11.8,28.13-17.24.91-1.82,0-2.73-1.81-2.73-4.54,4.54-11.8,9.08-12.71,9.08s-1.82-.91-1.82-1.81c0-1.81.91-4.53,2.72-9.08l19.96-61.71c2.73-7.25,4.54-12.7,7.26-18.14,0-.91-.91-1.82-1.81-1.82-6.36,0-20.87,2.73-25.41,4.54-.91,1.81-.91,2.72-.91,3.63l3.63,2.72c2.72.91,2.72,2.73.91,8.17l-9.07,27.23c-.91-1.82-3.63-3.63-7.26-3.63h0Zm51.73,47.18c-.91.91,0,1.81.91,1.81,1.81,0,9.08-5.44,12.71-8.17,1.81,0,3.63.91,2.72,2.73-5.45,7.25-18.15,17.24-29.04,17.24-4.53,0-7.26-3.63-7.26-5.44s.91-3.64,1.82-6.36l14.52-35.39c.91-.91.91-1.81,0-1.81-2.72,0-9.98,5.44-12.7,8.16-1.81-.91-2.73-2.72-1.81-3.63,7.25-9.08,20.86-16.33,28.13-16.33,3.64,0,6.36,3.63,6.36,6.35,0,1.81-.91,3.63-1.81,6.36l-14.53,34.48h0Zm16.34-82.58c4.53,0,8.17,3.63,8.17,9.08,0,6.36-4.54,11.8-10.89,11.8-5.45,0-9.08-3.63-9.08-9.08,0-6.35,4.53-11.8,11.8-11.8h0Z"/>
        <path class="cls-2" d="m697.62,300.87c-5.44,18.15-9.97,34.49-15.42,51.73-2.72,9.08-6.36,18.15-9.98,23.6-3.63,6.35-12.7,12.7-21.78,12.7-6.36,0-14.52-3.64-14.52-10.89,0-4.54,4.53-9.08,8.16-9.08,1.82,0,2.73,1.81,3.64,3.63,3.63,6.36,7.25,9.08,8.17,9.08,1.81,0,3.63-2.72,5.44-11.8,6.36-21.78,12.7-45.37,19.06-68.97h-13.61c-.91-2.72.91-6.35,2.72-7.25h12.7c2.72-8.17,5.45-16.34,9.98-23.6,6.36-11.8,16.33-20.87,29.04-20.87,11.8,0,16.33,6.36,16.33,12.71,0,7.25-6.35,10.89-9.08,10.89-1.81,0-3.63-1.82-3.63-4.54-2.72-9.98-5.44-12.7-7.26-12.7s-5.44,3.63-8.16,10.89c-4.54,8.17-6.36,18.15-9.08,27.23h15.42c1.81,1.81.91,6.35-1.81,7.25h-16.33Z"/>
        <path class="cls-2" d="m740.27,300.87c-5.44,18.15-9.97,34.49-15.42,51.73-2.72,9.08-6.36,18.15-9.98,23.6-4.53,6.35-12.7,12.7-22.69,12.7-6.36,0-13.61-3.64-13.61-10.89,0-4.54,3.63-9.08,7.25-9.08,2.73,0,3.64,1.81,4.54,3.63,3.63,6.36,6.35,9.08,8.17,9.08s2.72-2.72,5.44-11.8c6.36-21.78,11.8-45.37,19.06-68.97h-13.61c-.91-2.72,0-6.35,1.81-7.25h13.61c2.72-8.17,5.45-16.34,9.08-23.6,6.35-11.8,16.34-20.87,29.95-20.87,10.89,0,16.33,6.36,16.33,12.71,0,7.25-6.35,10.89-9.08,10.89s-3.63-1.82-4.53-4.54c-1.81-9.98-5.44-12.7-7.26-12.7s-4.53,3.63-7.25,10.89c-4.54,8.17-7.26,18.15-9.98,27.23h16.33c.91,1.81,0,6.35-1.81,7.25h-16.34Zm45.38-2.72c1.81,0,2.72,1.81,2.72,3.63,0,2.73-1.81,8.17-4.53,11.8-4.54,3.64-9.08,6.36-13.62,8.17.91-5.44,4.54-14.52,9.98-19.97,1.82-2.72,3.64-3.63,5.45-3.63Zm5.44-6.35c-7.25,0-14.52,1.81-22.69,8.16-10.89,9.08-19.06,23.6-19.06,36.3,0,9.08,5.45,16.33,15.43,16.33,12.7,0,23.59-6.35,30.86-17.24,0-1.82-1.81-2.73-2.72-2.73-6.36,6.36-13.62,9.08-19.06,9.08-3.64,0-5.45-3.63-5.45-7.25,0-2.73,0-5.45.91-7.26,10.89-2.72,35.4-9.08,35.4-23.59,0-6.36-5.45-11.8-13.62-11.8h0Zm72.6,8.16c0,8.17-5.44,14.52-9.08,14.52-2.72,0-3.63-2.73-4.53-6.36,0-2.72-.91-3.63-1.81-3.63-2.72,0-6.36,5.44-9.98,12.7-6.36,10.89-9.98,21.78-14.52,32.67-.91,1.81-3.63,2.72-7.25,2.72s-9.08-.91-7.26-5.44c3.63-13.62,9.08-28.13,12.7-40.84.91-1.81.91-4.54,0-4.54-2.72,0-8.16,4.54-11.8,9.08-1.81,0-2.72-1.81-2.72-3.63,2.72-5.45,11.8-15.42,21.78-15.42,8.17,0,9.08,6.35,6.36,13.61l-5.45,15.42h.91c4.54-9.08,8.17-14.52,11.8-19.06,4.54-6.35,9.08-9.97,13.62-9.97s7.25,2.72,7.25,8.16h0Zm32.67-1.82c1.81,0,2.73,1.81,2.73,3.63,0,2.73-2.73,8.17-5.45,11.8-3.63,3.64-8.17,6.36-13.61,8.17,1.81-5.44,4.53-14.52,9.98-19.97,1.81-2.72,4.53-3.63,6.35-3.63Zm4.54-6.35c-6.36,0-14.52,1.81-21.78,8.16-11.8,9.08-19.06,23.6-19.06,36.3,0,9.08,4.53,16.33,14.52,16.33,12.71,0,24.51-6.35,30.86-17.24,0-1.82-.91-2.73-2.72-2.73-6.36,6.36-12.7,9.08-18.15,9.08-4.53,0-6.35-3.63-6.35-7.25,0-2.73,0-5.45.91-7.26,11.8-2.72,35.39-9.08,35.39-23.59,0-6.36-5.44-11.8-13.61-11.8h0Zm48.09,9.07l-6.35,17.25c8.17-11.8,19.06-26.31,33.58-26.31,6.36,0,9.08,4.53,9.08,8.16s-1.81,8.17-3.64,12.71c-2.72,7.25-5.44,15.42-9.97,25.41-.91,1.81-.91,2.72.91,2.72s8.16-5.44,11.8-9.08c1.81-.91,3.63.91,3.63,2.73-4.53,7.25-16.33,18.14-29.95,18.14-3.63,0-6.35-2.72-6.35-5.44s.91-5.45,1.81-8.17c4.53-9.98,9.08-19.06,12.7-29.04.91-3.63,1.81-5.44,1.81-7.25,0-.91-.91-1.82-1.81-1.82-2.72,0-6.36,2.73-10.89,9.08-8.17,9.98-15.42,26.32-21.78,39.93-.91,1.81-3.63,2.72-7.26,2.72s-9.08-.91-7.25-5.44c0-2.72,10.89-32.67,13.61-39.02.91-2.72.91-4.53-.91-4.53-2.73,0-9.08,4.53-11.8,7.25-1.82,0-2.73-.91-2.73-1.81,3.64-7.26,15.43-17.24,27.23-17.24,6.36,0,5.44,5.44,4.53,9.07h0Zm44.47,35.4c0-9.08,4.53-21.78,12.7-30.86,9.08-9.98,18.14-13.61,25.41-13.61,8.17,0,14.52,3.63,14.52,10.89,0,5.44-4.54,9.07-9.08,9.07-3.64,0-6.36-1.81-6.36-5.44,0-2.72,0-8.17-2.72-8.17-1.81,0-5.45,2.72-9.08,9.08-3.63,6.35-6.36,15.42-6.36,25.41,0,7.26,2.73,9.08,5.45,9.08,3.63,0,9.08-1.81,15.42-8.17,1.82,0,2.73.91,2.73,2.73-4.54,7.25-16.34,16.33-28.13,16.33-9.07,0-14.51-6.35-14.51-16.33h0Zm89.84-38.12c1.81,0,2.72,1.81,2.72,3.63,0,2.73-1.81,8.17-4.53,11.8-4.53,3.64-9.08,6.36-13.61,8.17.91-5.44,4.53-14.52,9.98-19.97,1.82-2.72,3.63-3.63,5.44-3.63Zm5.45-6.35c-7.26,0-14.52,1.81-22.69,8.16-10.9,9.08-19.06,23.6-19.06,36.3,0,9.08,5.44,16.33,15.42,16.33,12.7,0,23.59-6.35,30.86-17.24,0-1.82-.91-2.73-2.72-2.73-6.36,6.36-13.61,9.08-18.15,9.08s-6.35-3.63-6.35-7.25c0-2.73,0-5.45.9-7.26,10.9-2.72,35.4-9.08,35.4-23.59,0-6.36-5.45-11.8-13.61-11.8h0Zm38.11,9.97c-6.35,0-11.8-5.44-11.8-11.8,0-5.44,5.45-10.89,11.8-10.89,5.45,0,10.89,5.45,10.89,10.89,0,6.36-5.44,11.8-10.89,11.8Zm0,2.73c7.26,0,13.62-6.36,13.62-14.52,0-7.25-6.36-13.61-13.62-13.61-8.17,0-14.52,6.36-14.52,13.61,0,8.17,6.35,14.52,14.52,14.52Zm2.73-12.7c2.72,0,4.53-1.82,4.53-4.54,0-.91-.91-2.72-1.81-3.63-1.81-.91-2.72-.91-4.54-.91h-7.25v15.42h3.63v-6.35h2.72l2.73,6.35h3.63l-3.63-6.35h0Zm-5.45-2.73v-3.63h3.63c.91,0,2.73,0,2.73,1.81s-.91,1.81-2.73,1.81h-3.63s0,0,0,0Zm-12.7,44.46c3.63,0,6.35,2.73,6.35,6.36,0,5.45-3.63,9.08-9.07,9.08-3.64,0-6.36-2.72-6.36-6.36,0-4.53,3.63-9.08,9.08-9.08h0Z"/>
      </g>
    </g>
  </g>
</svg>