<svg width="250" height="250" viewBox="0 0 250 250" fill="none" xmlns="http://www.w3.org/2000/svg">
<rect x="0.5" y="0.5" width="249" height="249" rx="38.5" fill="url(#paint0_linear_3_14)" stroke="#040CD8"/>
<path fill-rule="evenodd" clip-rule="evenodd" d="M186.14 78.9458C186.11 79.3758 186.08 84.6258 184.37 90.5858C181.88 99.2358 177.95 102.906 177.55 103.826C177.74 103.976 184.5 99.5958 192.27 99.9058C200.8 100.246 200.88 104.616 201 104.936C201.01 105.416 201.73 106.756 198.63 109.086C197.02 110.296 194.54 111.106 192.85 112.376C191.68 113.246 190.99 113.566 191.05 115.186C191.06 115.426 191.59 116.786 192.97 116.806C194.29 116.826 196.38 115.946 197.04 116.736C197.86 117.706 197.98 120.896 196.61 122.486C195.39 123.906 192.54 123.866 190.2 123.236C187.1 122.386 183.87 120.226 183.73 119.786C183.58 119.326 183.56 115.956 180.63 111.086C178.59 107.696 177.36 105.306 176.48 105.096C176.39 105.346 178.39 107.566 181.66 114.916C182.46 116.706 182.89 118.166 183.2 119.716C183.64 121.896 183.8 123.676 183.73 123.926C178.82 123.796 174.69 123.266 167.48 125.756C159.7 128.436 151.94 131.476 151.82 131.476C151.56 131.716 151.37 133.416 151.09 135.106C150.81 136.826 150.11 137.516 150.49 138.086C150.72 138.426 150.81 138.566 151.32 139.006C152.03 139.606 153.05 140.836 153.94 141.926C155.24 143.506 163.49 154.806 157.61 160.116C153.93 163.436 147.99 164.296 142.73 161.646C137.69 159.106 133.56 152.486 133.17 152.456C132.98 152.776 133.92 156.456 135.14 158.066C136.04 159.216 138.99 162.476 143.34 164.226C144.7 164.776 145.87 165.216 147.18 165.486C148.23 165.696 149.52 165.716 149.84 166.196C150.34 166.966 149.08 168.946 147.67 169.426C146.18 169.936 144.85 169.966 142.56 169.036C138.51 166.826 137.19 165.206 134.82 161.986C134.59 161.696 134.34 161.266 134.12 161.466C134.11 162.296 133.51 169.776 130.32 173.776C125.75 179.496 121.09 178.796 119.98 178.616C119.71 178.576 115.37 178.386 109.63 174.136C105.46 171.056 102.36 165.136 101.07 162.666C101.05 162.626 106.51 158.996 116.46 156.986C123.7 155.526 132.11 156.616 132.27 156.616C131.94 154.946 131.89 153.166 131.46 151.716C131.18 151.686 123.9 149.506 117.39 150.006C109.38 150.616 101.91 154.126 100.71 154.666C100.54 154.306 98.09 149.266 98.02 139.476C97.96 131.866 100.55 127.796 100.57 127.736C100.61 127.636 101.19 126.376 101.23 126.256C101.4 125.746 102.62 123.776 102.72 123.616C102.83 123.416 103.38 122.596 103.54 122.376C103.95 121.816 104.55 121.196 105.03 120.646C105.2 120.456 105.48 120.166 105.69 119.986C106.59 119.206 107.23 118.896 108.08 118.256C108.4 118.016 108.79 117.876 109.15 117.596C109.5 117.316 110.18 116.966 110.72 116.686C107.12 117.266 104.76 118.586 102.25 120.546C99.8 122.456 97.92 125.036 96.75 127.926C94.56 133.326 94.67 139.126 95.35 143.516C95.86 150.186 100.23 160.356 100.18 160.966C97.27 155.756 96.8 154.646 94.87 148.386C92.95 141.186 92.54 137.366 94.41 129.466C95.13 126.426 97.86 122.256 97.84 121.966C97.83 121.756 93.97 119.826 89.79 116.836C84.76 113.246 79.11 108.406 77.41 106.726C77.4 106.716 77.91 104.986 78.35 102.656C78.82 100.166 79.12 96.9158 80.56 94.6758C83.92 89.4358 86.34 90.1658 86.36 90.1558C86.51 90.2358 91.97 93.8658 93.48 94.6458C94.04 94.9358 100.69 97.4958 101.85 97.8758C101.87 97.8858 102.48 98.4458 101.09 95.6058C100.42 94.2258 99.86 92.6758 99.31 90.7758C98.36 87.4858 97.82 83.8858 97.65 81.9358C96.53 82.6058 95.8 83.5758 93.76 84.8558C93.05 85.2958 91 86.8758 87.66 86.8358C84.12 86.7958 83.44 86.2458 81.59 85.2658C78.24 83.4958 75.92 81.4558 74.32 80.6058C76.83 78.8858 78.4 77.5858 82.76 76.7758C86.55 76.3658 87.2 76.7058 89.56 77.1858C89.07 76.7158 87.52 76.0758 85.22 74.0358C83.19 72.2458 82.56 71.8358 80.27 67.5658C78.26 63.8158 78.67 58.0558 78.75 57.1458C80.16 57.0758 84.25 57.6558 88.25 59.9158C91.15 61.5558 93.47 63.9058 94.21 64.7558C96.32 67.1958 96.74 68.5158 97.31 69.8358C97.69 70.9658 97.67 71.1658 97.81 71.2458C97.93 70.5058 98.06 69.7958 98.18 69.0058C98.37 68.0058 98.51 67.6058 98.83 66.3658C101.4 57.5558 105.89 51.8858 110.93 46.0458C108.88 43.5958 107.25 42.2558 105.2 40.3458C107.52 38.4158 131.72 20.2658 158.23 34.2558C188.47 50.1858 186.19 78.1458 186.14 78.9458ZM120.98 45.4358C115.27 48.2258 112.45 50.8958 108.92 54.9458C105.98 58.3258 103.25 62.7358 101.75 68.2658C101 71.0158 100.8 73.2558 100.92 76.4258C102.03 74.5158 102.23 73.8358 102.51 73.0758C103.56 70.3158 104.57 68.2558 105.68 65.8758C108.57 59.7058 112.9 54.8558 117.66 50.4558C119.44 48.8058 124.14 45.4758 124.08 44.5958C124.27 44.5058 122.75 44.8658 120.98 45.4358ZM85.06 70.4058C86.8 72.5858 88.88 74.9958 91.32 75.7158C92.67 76.1158 94.17 76.1158 94.62 75.2158C92.12 73.8558 89.23 72.5658 86.26 68.8958C81.02 62.4158 80.67 60.3958 80.63 60.3958C80.63 60.4558 79.99 61.7058 82.08 65.5558C83.4 68.0058 84.03 69.1158 85.06 70.4058ZM131.94 123.426C132.2 123.476 139.19 124.636 145.98 123.656C152.45 122.726 158.98 119.266 159.57 118.986C160.74 118.416 161.99 117.576 163.1 116.896C163.27 116.796 163.44 116.696 163.6 116.586C172.43 110.636 175.03 105.716 176.34 103.766C176.99 102.806 178.08 100.706 178.11 100.646C178.19 100.496 180.86 95.1758 181.38 90.8758C181.92 86.4258 180.43 84.4358 180.36 84.3158C179.03 81.9758 176 81.7258 174.54 81.5458C170.42 81.0158 165.38 81.3658 165.23 81.3858C162.32 81.7658 151.59 82.5058 146.03 80.5858C144 79.8858 141.91 78.9458 140.03 77.8858C134.25 74.6158 129.76 70.1358 129.04 69.5358C128.41 69.0158 125.26 66.0058 121.74 64.9258C116.91 63.4358 110.62 70.1658 108.07 80.0558C107.02 84.1458 105.93 94.9158 109.58 99.6658C112.71 103.746 116.94 105.326 120.95 105.126C122.19 105.066 126.08 104.676 132.3 102.466C136.01 101.146 139.58 100.576 143.55 101.386C147.96 102.286 151.8 107.326 155.18 111.296C159.27 116.096 163.61 115.826 163.85 115.806C161.89 117.196 159.75 118.086 157.5 118.926C146.53 123.006 138.53 122.156 129.37 120.186C129.7 120.256 130.34 121.466 130.49 121.666C130.82 122.136 131.6 123.356 131.94 123.426ZM88.64 85.1758C86.79 85.5158 85.47 85.0358 84.27 84.6358C82.49 84.0458 81.08 83.3258 79.48 82.3958C78.04 81.6258 78.43 81.4258 78.65 81.4758C79.43 81.7758 81.74 83.2458 86.73 83.1058C90.93 82.9858 93.52 81.8958 94.06 81.6958C94.31 81.8858 93.18 82.9458 91.9 83.8258C91.26 84.2658 90.38 84.8658 88.64 85.1758ZM116.64 114.126C111.75 110.866 108.48 107.546 104.44 101.666C104.66 106.326 109.7 112.686 113.25 114.796C113.98 115.226 114.16 114.916 114.91 114.716C115.64 114.526 116.51 114.266 116.64 114.126ZM130.85 144.186C131.8 139.926 131.96 136.826 131.55 132.556C131.06 127.526 129.58 122.516 126.49 119.666C124.41 117.756 121.15 116.366 117.71 116.626C112.42 117.036 109.29 119.256 107.33 123.196C110.6 121.116 115.22 118.846 120.37 119.896C121.88 120.206 123.53 121.166 124.58 122.206C126.85 124.486 128.29 128.826 128.87 132.686C129.59 137.476 129.68 142.336 129.61 147.386C130.32 146.316 130.61 145.266 130.85 144.186ZM136.57 141.496C136.98 142.816 140.36 143.576 143.14 142.356C145.41 141.266 147.43 139.136 146.88 137.456C146.76 137.096 144.88 138.746 142.36 139.946C139.84 141.146 136.54 140.906 136.57 141.496Z" fill="#050606"/>
<path fill-rule="evenodd" clip-rule="evenodd" d="M138.82 88.8658C137.4 88.9658 134.77 87.5758 133.22 87.9358C133.45 89.6158 133.73 91.3258 133.09 93.1258C132.42 95.0158 131.85 95.4458 130.85 96.4858C127.56 99.9258 122.72 98.2258 121.45 97.5458C119.3 96.3858 118.06 94.4558 117.6 92.9958C116.9 90.7858 117.23 89.0758 117.41 88.4358C117.88 86.7658 118.61 85.6658 119.14 85.0458C119.96 84.0358 121.44 82.8258 123.14 82.4058C124.86 81.9858 126.67 82.2658 126.93 82.2458C126.76 81.5358 124.99 79.2458 122.83 79.0558C120.25 78.8358 117.29 80.8558 117.11 80.9758C117.15 80.9458 117.04 79.5358 117.32 77.9758C117.54 76.7158 117.93 75.6858 118.24 74.8758C118.54 74.0858 119.76 70.6458 123.56 71.1358C127.24 71.6158 129.69 76.5358 130.33 77.5858C130.92 78.5558 131.44 79.4158 132.57 81.4158C134.97 85.6558 137.9 88.2058 138.82 88.8658ZM118.94 90.7757C119.39 93.9357 122.09 97.0958 125.77 96.7858C129.31 96.4958 131.99 93.1658 131.28 88.5558C130.64 89.3358 130.29 89.8658 129.87 90.9258C129.58 89.6958 129.23 88.2958 128.57 85.9858C128.29 85.0158 128.19 84.5758 127.66 84.3758C125.18 84.0558 123.83 83.8058 122.16 84.7958C120.24 85.9258 118.81 88.1157 118.94 90.7757Z" fill="#050606"/>
<path fill-rule="evenodd" clip-rule="evenodd" d="M84.23 89.4658C84.15 89.4658 80.18 91.1858 78.72 96.5158C77.98 99.2358 77.78 102.026 77.74 102.386C77.68 102.886 77.6 103.446 77.48 103.946C77.29 104.726 76.87 105.536 76.36 106.146C75.71 106.916 74.82 107.466 73.87 107.766C73.17 107.986 72.43 108.126 71.7 108.176C71.06 108.216 70.35 108.266 69.71 108.136C69.08 108.006 67.16 107.486 66.51 106.286C65.87 105.126 66.47 103.296 66.61 102.986C66.83 102.506 67.03 101.876 67.56 101.646C67.82 101.536 68.2 101.396 68.48 101.376C69.13 101.326 69.51 101.396 69.94 101.356C70.32 101.326 70.74 101.266 71.01 100.966C71.14 100.816 71.2 100.696 71.22 100.506C71.33 99.3558 70.95 98.1658 69.75 97.4358C68.81 96.8658 67.86 96.2858 66.91 95.7458C65.96 95.2058 64.94 94.6458 63.99 94.1058C63.2 93.6558 62.55 92.9858 62.01 92.2258C61.41 91.3858 61.28 90.5358 61.61 89.5458C62.2 87.7858 63.6 86.2658 65.21 85.3558C66.3 84.7358 66.95 84.2858 69.05 84.1558C69.85 84.1058 70.91 84.2458 71.71 84.3458C72.14 84.4058 72.7 84.5058 73.13 84.5958C73.54 84.6858 73.79 84.8058 74.2 84.8958C74.62 84.9858 74.96 85.0858 75.37 85.2058C75.79 85.3258 76.19 85.4058 76.6 85.5558C76.93 85.6758 77.22 85.7758 77.55 85.8958C78.09 86.0858 78.72 86.3658 79.25 86.5858C80.1 86.9358 80.87 87.3158 81.68 87.7558C82.08 87.9758 82.51 88.2358 82.89 88.4858C83.05 88.5958 83.31 88.6858 83.45 88.8158C83.5 88.8458 84.16 89.4658 84.23 89.4658Z" fill="#050606"/>
<path fill-rule="evenodd" clip-rule="evenodd" d="M125.92 85.9358C125.22 86.7058 124.92 87.1558 124.9 88.0858C124.86 89.8058 126.28 91.7658 128.39 91.4858C128.87 91.4258 129.31 91.2858 129.86 91.1958C129.77 94.1158 126.71 96.3558 123.23 95.3958C123.5 92.7958 121.06 91.8458 120.22 91.9458C119.34 87.7858 122.96 85.2658 125.92 85.9358Z" fill="#050606"/>
<path fill-rule="evenodd" clip-rule="evenodd" d="M175.85 98.2558C175.82 98.2858 173.52 94.2158 171.01 93.4558C169.11 92.8858 166.85 93.5558 166.9 93.7158C166.97 93.9258 169.81 95.6458 170.14 99.6358C170.43 103.136 168.59 105.236 168.53 105.366C168.45 105.556 167.23 107.316 165.23 108.216C161.95 109.696 159.98 108.816 159.16 108.626C158.21 108.176 155.9 107.446 154.3 104.626C153.51 103.236 153.04 100.706 153.48 98.6158C153.91 96.5658 155.37 94.9558 155.9 94.4458C156.04 94.3058 153.94 92.6258 153.79 92.4358C153.7 92.3158 152.97 91.6958 153.03 91.5458C153.05 91.5058 154.59 91.7958 157.74 91.0458C161.21 90.2258 165.73 89.1258 169.77 89.3158C174.73 89.5458 175.37 93.2958 175.49 93.6758C175.82 94.6858 175.8 95.6858 175.85 96.7258C175.86 96.9058 175.83 97.0958 175.81 97.2758C175.8 97.4058 175.9 98.2158 175.85 98.2558ZM155.23 102.176C155.76 104.336 157.77 106.526 160 107.036C164.03 107.966 167.22 105.496 168.07 102.526C168.23 101.966 168.41 100.916 168.4 100.296C168.36 97.9358 166.3 95.2058 164.93 94.7758C164.44 94.6258 164.25 95.1058 163.78 95.2858C163.5 95.3958 163.02 95.1758 162.78 95.4358C162.42 95.8358 161.12 97.2958 161.87 99.3558C162.66 101.516 165.46 101.606 166.66 100.806C166.56 102.686 165.03 104.466 164.1 104.966C162.84 105.636 161.01 105.646 159.93 105.166C159.99 104.726 159.92 104.126 159.83 103.756C159.78 103.526 159.26 102.666 158.58 102.246C157.97 101.866 157.35 101.766 156.82 101.776C156.32 99.0158 157.84 97.0058 159.41 95.9758C158.81 95.7558 158.12 95.6158 157.57 95.3158C155.41 96.8758 154.56 99.4258 155.23 102.176Z" fill="#050606"/>
<path fill-rule="evenodd" clip-rule="evenodd" d="M64.2 119.246C65.66 125.046 65.53 124.666 66.34 127.846C66.47 128.336 65.6 128.106 65.74 128.966C66.31 132.576 69.29 131.816 70.28 131.466C70.77 131.006 70.41 130.886 70.59 130.216C70.8 130.216 78.2 128.186 79.27 128.026C77.06 130.436 75.41 132.116 73.07 134.256C72.13 133.756 70.36 134.576 70.42 137.106C70.46 138.616 71.86 139.416 72.08 139.726C72.78 139.456 72.4 139.676 73.03 139.286C75.38 141.556 77.17 143.406 79.38 145.536C75.84 144.736 74.71 144.476 70.77 143.356C70.73 142.626 70.56 142.216 69.86 141.966C69.52 141.826 67.58 141.616 66.67 142.626C65.61 143.816 65.27 145.266 66.35 145.796C65.4 150.036 65.08 151.146 64.23 154.476C62.83 149.856 61.83 146.716 61.83 145.926C61.83 145.826 62.27 145.566 62.53 145.216C62.54 145.196 62.38 142.566 60.63 142.066C58.07 141.346 57.5 142.816 57.51 143.286C53.48 144.456 52.73 144.666 49.01 145.626C51.09 143.296 52.89 141.536 55.12 139.196C55.24 139.246 55.73 139.736 56.17 139.646C56.82 139.516 58.04 137.576 57.79 136.256C57.48 134.576 56.64 134.216 56.07 133.986C55.48 134.156 55.85 134.046 55.25 134.276C53.06 132.096 53.09 132.306 49 127.916C55.11 129.456 56.36 129.796 57.44 130.276C57.68 130.726 57.59 131.116 57.89 131.436C58.12 131.676 59.67 131.806 60.5 131.646C61.64 131.426 62.6 129.036 62.57 128.456C62.56 128.276 61.8 128.286 61.94 127.596C62.35 125.596 63.05 123.566 64.2 119.246ZM64.2 124.446C64 124.876 63.31 127.086 63.39 127.406C63.44 127.616 64.22 128.026 64.25 128.026C64.29 128.026 64.84 127.506 64.91 127.356C65.04 127.026 64.4 124.906 64.2 124.446ZM53.39 130.606C54.25 131.536 55.7 132.736 55.76 132.796C56.05 132.576 56.52 132.546 56.62 132.506C56.65 132.486 56.48 131.856 56.54 131.526C55.47 131.166 54.71 130.836 53.39 130.606ZM71.97 131.376C71.9 132.006 71.93 131.926 71.83 132.486C72.33 132.646 72.6 132.796 72.74 132.766C72.79 132.756 73.87 131.786 74.45 130.666C73.74 130.886 73.15 131.156 71.97 131.376ZM62.56 137.586C62.97 138.756 65.45 139.056 65.82 137.246C66.1 135.886 65.04 134.636 63.53 135.156C62.57 135.486 62.19 136.526 62.56 137.586ZM53.39 143.096C54.7 142.736 54.73 142.736 56.53 142.126C56.53 142.126 56.57 141.486 56.57 141.126C55.62 140.906 55.64 140.886 55.63 140.896C54.58 141.796 54.16 142.246 53.39 143.096ZM72.79 140.936C72.37 141.026 72.37 141.026 71.92 141.086C71.91 141.426 71.93 141.776 71.98 142.066C72.01 142.226 73.11 142.466 74.75 142.966C73.93 141.956 73.19 141.366 72.79 140.936ZM63.38 146.216C63.91 147.686 63.91 147.796 64.2 148.866C64.59 147.716 64.51 147.996 64.98 146.256C64.71 146.046 64.3 145.656 64.23 145.656C64.11 145.656 63.67 145.996 63.38 146.216Z" fill="#050606"/>
<path fill-rule="evenodd" clip-rule="evenodd" d="M126.7 186.376C128.16 192.176 128.03 191.796 128.84 194.976C128.97 195.466 128.1 195.236 128.24 196.096C128.81 199.706 131.79 198.946 132.78 198.596C133.27 198.136 132.91 198.016 133.09 197.346C133.3 197.346 140.7 195.316 141.77 195.156C139.56 197.566 137.91 199.246 135.57 201.386C134.63 200.886 132.86 201.706 132.92 204.236C132.96 205.746 134.36 206.546 134.58 206.856C135.28 206.586 134.9 206.806 135.53 206.416C137.88 208.686 139.67 210.536 141.88 212.666C138.34 211.866 137.21 211.606 133.27 210.486C133.23 209.756 133.06 209.346 132.36 209.096C132.02 208.956 130.08 208.746 129.17 209.756C128.11 210.946 127.77 212.396 128.85 212.926C127.9 217.166 127.58 218.276 126.73 221.606C125.33 216.986 124.33 213.846 124.33 213.056C124.33 212.956 124.77 212.696 125.03 212.346C125.04 212.326 124.88 209.696 123.13 209.196C120.57 208.476 120 209.946 120.01 210.416C115.98 211.586 115.23 211.796 111.51 212.756C113.59 210.426 115.39 208.666 117.62 206.326C117.74 206.376 118.23 206.866 118.67 206.776C119.32 206.646 120.54 204.706 120.29 203.386C119.98 201.706 119.14 201.346 118.57 201.116C117.98 201.286 118.35 201.176 117.75 201.406C115.56 199.226 115.59 199.436 111.5 195.046C117.61 196.586 118.86 196.926 119.94 197.406C120.18 197.856 120.09 198.246 120.39 198.566C120.62 198.806 122.17 198.936 123 198.776C124.14 198.556 125.1 196.166 125.07 195.586C125.06 195.406 124.3 195.416 124.44 194.726C124.85 192.726 125.55 190.706 126.7 186.376ZM126.7 191.576C126.5 192.006 125.81 194.216 125.89 194.536C125.94 194.746 126.72 195.156 126.75 195.156C126.79 195.156 127.34 194.636 127.41 194.486C127.54 194.156 126.9 192.046 126.7 191.576ZM115.89 197.736C116.75 198.666 118.2 199.866 118.26 199.926C118.55 199.706 119.02 199.676 119.12 199.636C119.15 199.616 118.98 198.986 119.04 198.656C117.97 198.296 117.21 197.976 115.89 197.736ZM134.48 198.506C134.41 199.136 134.44 199.056 134.34 199.616C134.84 199.776 135.11 199.926 135.25 199.896C135.3 199.886 136.38 198.916 136.96 197.796C136.24 198.016 135.65 198.286 134.48 198.506ZM125.06 204.726C125.47 205.896 127.95 206.196 128.32 204.386C128.6 203.026 127.54 201.776 126.03 202.296C125.07 202.616 124.69 203.666 125.06 204.726ZM115.89 210.236C117.2 209.876 117.23 209.876 119.03 209.266C119.03 209.266 119.07 208.626 119.07 208.266C118.12 208.046 118.14 208.026 118.13 208.036C117.08 208.926 116.66 209.376 115.89 210.236ZM135.29 208.066C134.87 208.156 134.87 208.156 134.42 208.216C134.41 208.556 134.43 208.906 134.48 209.196C134.51 209.356 135.61 209.596 137.25 210.096C136.43 209.086 135.69 208.496 135.29 208.066ZM125.88 213.346C126.41 214.816 126.41 214.926 126.7 215.996C127.09 214.846 127.01 215.126 127.48 213.386C127.21 213.176 126.8 212.786 126.73 212.786C126.61 212.786 126.17 213.136 125.88 213.346Z" fill="#050606"/>
<path fill-rule="evenodd" clip-rule="evenodd" d="M186.18 137.466C187.64 143.266 187.51 142.886 188.32 146.066C188.45 146.556 187.58 146.326 187.72 147.186C188.29 150.796 191.27 150.036 192.26 149.686C192.75 149.226 192.39 149.106 192.57 148.436C192.78 148.436 200.18 146.406 201.25 146.246C199.04 148.656 197.39 150.336 195.05 152.476C194.11 151.976 192.34 152.796 192.4 155.326C192.44 156.836 193.84 157.636 194.06 157.946C194.76 157.676 194.38 157.896 195.01 157.506C197.36 159.776 199.15 161.626 201.36 163.756C197.82 162.956 196.69 162.696 192.75 161.576C192.71 160.846 192.54 160.436 191.84 160.186C191.5 160.046 189.56 159.836 188.65 160.846C187.59 162.036 187.25 163.486 188.33 164.016C187.38 168.256 187.06 169.366 186.21 172.696C184.81 168.076 183.81 164.936 183.81 164.146C183.81 164.046 184.25 163.786 184.51 163.436C184.52 163.416 184.36 160.786 182.61 160.286C180.05 159.566 179.48 161.036 179.49 161.506C175.46 162.676 174.71 162.886 170.99 163.846C173.07 161.516 174.87 159.756 177.1 157.416C177.22 157.466 177.71 157.956 178.15 157.866C178.8 157.736 180.02 155.796 179.77 154.476C179.46 152.796 178.62 152.436 178.05 152.206C177.46 152.376 177.83 152.266 177.23 152.496C175.04 150.316 175.07 150.526 170.98 146.136C177.09 147.676 179 148.396 179.42 148.496C179.57 148.886 179.6 149.276 179.87 149.656C180.07 149.926 181.65 150.026 182.48 149.866C183.62 149.646 184.58 147.256 184.55 146.676C184.54 146.496 183.78 146.506 183.92 145.816C184.33 143.816 185.02 141.786 186.18 137.466ZM186.18 142.666C185.98 143.096 185.29 145.306 185.37 145.626C185.42 145.836 186.2 146.246 186.23 146.246C186.27 146.246 186.82 145.726 186.89 145.576C187.02 145.246 186.37 143.136 186.18 142.666ZM175.37 148.826C176.23 149.756 177.68 150.956 177.74 151.016C178.03 150.796 178.5 150.766 178.6 150.726C178.63 150.706 178.46 150.076 178.52 149.746C177.44 149.386 176.68 149.056 175.37 148.826ZM193.95 149.596C193.88 150.226 193.91 150.146 193.81 150.706C194.31 150.866 194.58 151.016 194.72 150.986C194.77 150.976 195.85 150.006 196.43 148.886C195.72 149.106 195.12 149.376 193.95 149.596ZM184.54 155.806C184.95 156.976 187.43 157.276 187.8 155.466C188.08 154.106 187.02 152.856 185.51 153.376C184.55 153.706 184.17 154.746 184.54 155.806ZM175.37 161.316C176.68 160.956 176.71 160.956 178.51 160.346C178.51 160.346 178.55 159.706 178.55 159.346C177.6 159.126 177.62 159.106 177.61 159.116C176.56 160.016 176.14 160.466 175.37 161.316ZM194.77 159.156C194.35 159.246 194.35 159.246 193.9 159.306C193.89 159.646 193.91 159.996 193.96 160.286C193.99 160.446 195.09 160.686 196.73 161.186C195.91 160.176 195.17 159.586 194.77 159.156ZM185.35 164.436C185.88 165.906 185.88 166.016 186.17 167.086C186.56 165.936 186.48 166.216 186.95 164.476C186.68 164.266 186.27 163.876 186.2 163.876C186.09 163.876 185.65 164.216 185.35 164.436Z" fill="#050606"/>
<defs>
<linearGradient id="paint0_linear_3_14" x1="22" y1="17" x2="198" y2="222" gradientUnits="userSpaceOnUse">
<stop stop-color="#D0F9FF"/>
<stop offset="1" stop-color="#86CBFE"/>
</linearGradient>
</defs>
</svg>
